/* XPM */
static char *result[] = {
/* columns rows colors chars-per-pixel */
"40 40 119 2 ",
"   c black",
".  c #0F161E",
"X  c #101720",
"o  c #372F32",
"O  c #33353F",
"+  c #493E3D",
"@  c #563D31",
"#  c #563E31",
"$  c #563D32",
"%  c #573D32",
"&  c #573E32",
"*  c #503E37",
"=  c #533E36",
"-  c #523F37",
";  c #4D403E",
":  c #4C413F",
">  c #353741",
",  c #293B50",
"<  c #2C3E53",
"1  c #2B3F55",
"2  c #2B3E56",
"3  c #2B3F56",
"4  c #2C3E55",
"5  c #2C3F55",
"6  c #2C3F56",
"7  c #2C3F57",
"8  c #313E51",
"9  c #2C4057",
"0  c #2D4058",
"q  c #2D4159",
"w  c #2E425A",
"e  c #2F435A",
"r  c #2F435B",
"t  c #2F445B",
"y  c #2F445C",
"u  c #314257",
"i  c #34445A",
"p  c #30455D",
"a  c #33455C",
"s  c #30455E",
"d  c #30465E",
"f  c #31465E",
"g  c #31475F",
"h  c #34465D",
"j  c #37475C",
"k  c #37465D",
"l  c #37475D",
"z  c #38465A",
"x  c #38475A",
"c  c #314760",
"v  c #324861",
"b  c #334861",
"n  c #324961",
"m  c #334961",
"M  c #324862",
"N  c #324962",
"B  c #334962",
"V  c #364960",
"C  c #394D66",
"Z  c #3C4D64",
"A  c #3D5068",
"S  c #4B4141",
"D  c #52474C",
"F  c #605358",
"G  c #415167",
"H  c #425268",
"J  c #40526A",
"K  c #43536A",
"L  c #45566D",
"P  c #47576F",
"I  c #48576F",
"U  c #48586F",
"Y  c #5E5D69",
"T  c #536076",
"R  c #66646F",
"E  c #75646B",
"W  c #62667A",
"Q  c #7D7075",
"!  c #80767E",
"~  c #686D83",
"^  c #6E6E81",
"/  c #6E6F82",
"(  c #6E7487",
")  c #717286",
"_  c #727489",
"`  c #737789",
"'  c #767A8D",
"]  c #7B7E90",
"[  c #7C7F91",
"{  c #807887",
"}  c #867C85",
"|  c #95858B",
" . c #838496",
".. c #8B8090",
"X. c #9A8E9F",
"o. c #A38B8B",
"O. c #A48C8C",
"+. c #A18F96",
"@. c #AC9495",
"#. c #9390A0",
"$. c #9B94A2",
"%. c #9E98A7",
"&. c #A799AA",
"*. c #B39AA4",
"=. c #A9A0AE",
"-. c #BDA3AE",
";. c #B4A8B5",
":. c #C1A6B1",
">. c #C3A7B3",
",. c #C8ACB7",
"<. c #CBB4BD",
"1. c #D5B7C3",
"2. c #D2B9C3",
"3. c #D7B9C6",
"4. c #DDBECB",
"5. c #DEC3CE",
"6. c #DFC8D0",
"7. c #DFC8D1",
"8. c None",
/* pixels */
"8.8.8.8.8.8.8.8.8.8.8.8.8.8.8.8.8.8.8.8.8.8.8.8.8.8.8.8.8.8.8.8.8.8.8.8.8.8.8.8.",
"8.8.8.8.8.8.8.8.8.8.8.8.8.8.8.8.8.8.8.8.8.8.8.8.8.8.8.8.8.8.8.8.8.8.8.8.8.8.8.8.",
"8.8.8.8.8.8.8.8.8.8.8.8.8.8.8.8.8.8.8.8.8.8.8.8.8.8.8.8.8.8.8.8.8.8.8.8.8.8.8.8.",
"8.8.8.8.8.8.8.8.8.8.8.8.8.8.8.8.8.8.8.8.8.8.8.8.8.8.8.8.8.8.8.8.8.8.8.8.8.8.8.8.",
"8.8.8.8.8.8.8.8.8.8.8.8.8.8.8.8.8.8.8.8.8.8.8.8.8.8.8.8.8.8.8.8.8.8.8.8.8.8.8.8.",
"8.8.8.8.8.8.8.8.8.8.8.3 5 5 r b b M 8.8.8.8.8.8.8.8.8.8.8.8.8.8.8.8.8.8.8.8.8.8.",
"8.8.8.8.8.8.8.8.8.8.8.1 6 6 r B B v 8.8.8.8.8.8.8.8.8.8.8.8.8.8.8.8.8.8.8.8.8.8.",
"8.8.8.8.8.8.8.8.8.8.8.1 6 6 r B B v 8.8.8.8.8.8.8.8.8.8.8.8.8.8.8.8.8.8.8.8.8.8.",
"8.8.8.8.8.8.8.8.2 2 1 4 6 6 0 r r t s N N 8.8.8.8.8.8.8.8.8.$ $ $ $ $ $ $ $ $ $ ",
"8.8.8.8.8.8.8.1 6 6 6 6 6 6 6 6 6 9 p B B B 8.8.8.8.8.8.8.$ & & & & & & & & & & ",
"8.8.8.8.8.8.8.1 6 6 6 6 6 6 6 6 6 9 p B B B 8.8.8.8.8.8.8.$ & & & & & & & & & & ",
"8.8.8.8.8.8.8.W ^ ^ ^ ^ ^ ^ ^ ^ ^ / ) _ _ ~ 8.8.8.8.8.8.8.$ & & # @ % % @ & & & ",
"8.8.8.8.5 6 k X.4.4.4.4.4.4.4.4.4.4.4.4.4.&.I B B 8.8.8.8.$ & & % 8.8.8.$ & & & ",
"8.8.8.8.5 6 k X.4.4.4.4.4.4.4.4.4.4.4.4.4.&.I B B 8.8.8.8.$ & & % 8.8.8.$ & & & ",
"8.8.8.8.5 6 i { *.*.-.1.4.4.4.4.4.3.>.*.*...K B B B 8.8.8.= & & % 8.8.8.8.# # # ",
"8.8.8.8.5 6 < O o o F -.4.4.4.4.4.,.E o o > a B B v b b z ; & & % 8.8.8.8.8.8.8.",
"8.8.8.8.5 6 , X     o *.4.4.4.4.4.:.D     . 5 B B B B B j S & & % 8.8.8.8.8.8.8.",
"8.8.8.8.5 6 , X     o *.4.4.4.4.4.:.D     . 5 B B B B B j S & & % 8.8.8.8.8.8.8.",
"8.8.8.8.5 6 u Y Q Q | <.5.5.5.5.5.2.+.Q Q R Z B B B B B G ! o.o.O.8.8.8.8.8.8.8.",
"8.8.8.8.5 6 l $.7.7.7.7.7.7.7.7.7.7.7.7.7.=.U B B B B B U =.7.7.6.8.8.8.8.8.8.8.",
"8.8.8.8.5 6 l $.7.7.7.7.7.7.7.7.7.7.7.7.7.=.U B B B B B U =.7.7.6.8.8.8.8.8.8.8.",
"8.8.8.8.5 7 h ` %.%.%.%.%.%.%.%.%.%.%.%.%.[ J B B B B B H } @.@.@.8.8.8.8.8.8.8.",
"8.8.8.8.5 q y g B B B B B B B B B B B B B B B B B B B B j S & & % 8.8.8.8.8.8.8.",
"8.8.8.8.5 9 q d B B B B B B B B B B B B B B B B B B B B j S & & % 8.8.8.8.8.8.8.",
"8.8.8.8.5 6 6 p B B B B B B B B B B B B B B B B B m m m x : & & % 8.8.8.8.8.8.8.",
"8.8.8.8.5 6 6 p B B B B B B B B B B B B B B B B B M 8.8.8.- & & % 8.8.8.8.8.8.8.",
"8.8.8.8.5 6 6 p B B B B B B B B B B B B B B B B B 8.8.8.8.$ & & % 8.8.8.8.8.8.8.",
"8.8.8.8.5 6 6 p B B B B B B B B B B B B B B B B B 8.8.8.8.$ & & % 8.8.8.8.8.8.8.",
"8.8.8.8.y y V ( #.#.] L B B B B B B B B B B B B B 8.8.8.8.$ & & % 8.8.8.8.8.8.8.",
"8.8.8.8.n B A %.7.7.;.T B B B B B B B B B B B B B 8.8.8.8.$ & & % 8.8.8.8.8.8.8.",
"8.8.8.8.n B A %.7.7.;.T B B B B B B B B B B B B B 8.8.8.8.$ & & % 8.8.8.8.8.8.8.",
"8.8.8.8.n B C ' %.%. .P B B B B B B B B B B B B B 8.8.8.8.$ & & % 8.8.8.8.8.8.8.",
"8.8.8.8.n B B B B B B B B B B B B B B B B B B B B 8.8.8.8.$ & & % 8.8.8.8.8.8.8.",
"8.8.8.8.n B B B B B B B B B B B B B B B B B B B B 8.8.8.8.$ & & % 8.8.8.8.8.8.8.",
"8.8.8.8.n B B B B B v c g g g g g c v B B B B B B 8.8.8.8.$ & & % 8.8.8.8.8.8.8.",
"8.8.8.8.n B B B B B g w q q q q q w f B B B B B B 8.8.8.8.$ & & % 8.8.8.8.8.8.8.",
"8.8.8.w p p p p p p r 9 6 6 6 6 6 6 w p p p p p p e 8.8.8.* & & % 8.8.8.8.8.8.8.",
"6 6 6 6 6 6 6 6 6 6 6 6 6 6 6 6 6 6 6 6 6 6 6 6 6 6 6 6 8 + & & % 8.8.8.8.8.8.8.",
"6 6 6 6 6 6 6 6 6 6 6 6 6 6 6 6 6 6 6 6 6 6 6 6 6 6 6 6 8 + & & % 8.8.8.8.8.8.8.",
"6 6 6 6 6 6 6 6 6 6 6 6 6 6 6 6 6 6 6 6 6 6 6 6 6 6 6 6 8 + & & % 8.8.8.8.8.8.8."
};
