/* XPM */
static char *result[] = {
/* columns rows colors chars-per-pixel */
"40 40 124 2 ",
"   c black",
".  c #0F161E",
"X  c #101720",
"o  c #372F32",
"O  c #493E3D",
"+  c #4E3F3C",
"@  c #563D31",
"#  c #563E31",
"$  c #563D32",
"%  c #573D32",
"&  c #573E32",
"*  c #503E37",
"=  c #4F403B",
"-  c #293B50",
";  c #2B3E55",
":  c #2B3F55",
">  c #2B3E56",
",  c #2C3F55",
"<  c #2E3F55",
"1  c #2C3F56",
"2  c #313E51",
"3  c #2C4057",
"4  c #2F4056",
"5  c #2D4159",
"6  c #2F4158",
"7  c #2E425A",
"8  c #2F435A",
"9  c #2E425B",
"0  c #2F435B",
"q  c #2F445C",
"w  c #30455D",
"e  c #31465E",
"r  c #31475F",
"t  c #35465C",
"y  c #37475C",
"u  c #37465D",
"i  c #36475D",
"p  c #37475D",
"a  c #394658",
"s  c #37495F",
"d  c #314760",
"f  c #324861",
"g  c #334861",
"h  c #324961",
"j  c #334961",
"k  c #324862",
"l  c #324962",
"z  c #334962",
"x  c #364960",
"c  c #384A60",
"v  c #3B4B60",
"b  c #3D4E63",
"n  c #384C65",
"m  c #394D66",
"M  c #3D5068",
"N  c #4B4141",
"B  c #52474C",
"V  c #534B4E",
"C  c #444651",
"Z  c #494A54",
"A  c #4C4B57",
"S  c #524F5B",
"D  c #605358",
"F  c #63595C",
"G  c #796059",
"H  c #78605A",
"J  c #45556C",
"K  c #44556D",
"L  c #45566D",
"P  c #46576E",
"I  c #47576F",
"U  c #495469",
"Y  c #4D566B",
"T  c #48576F",
"R  c #4D576D",
"E  c #48586F",
"W  c #4B596E",
"Q  c #4F5D73",
"!  c #505B72",
"~  c #505E75",
"^  c #525E75",
"/  c #536076",
"(  c #5E687D",
")  c #6E6569",
"_  c #76686E",
"`  c #7F6D75",
"'  c #8A716D",
"]  c #8A726D",
"[  c #87777D",
"{  c #6E7487",
"}  c #767A8D",
"|  c #7B7E90",
" . c #8F7B83",
".. c #878092",
"X. c #838496",
"o. c #878595",
"O. c #978E99",
"+. c #918A9C",
"@. c #9A8E9F",
"#. c #938FA0",
"$. c #9390A0",
"%. c #9B94A2",
"&. c #9E98A7",
"*. c #A799AA",
"=. c #B39AA4",
"-. c #B09EAD",
";. c #B09EAE",
":. c #B19FAF",
">. c #A9A0AE",
",. c #B2A0B0",
"<. c #B4A8B5",
"1. c #BEB0BC",
"2. c #C1A6B1",
"3. c #C5ADB2",
"4. c #C5AEB3",
"5. c #C3ABB5",
"6. c #C5A9B5",
"7. c #CDB0BC",
"8. c #CCB2BD",
"9. c #DDBECB",
"0. c #DDC1CD",
"q. c #DFC8D0",
"w. c #DFC8D1",
"e. c None",
/* pixels */
"e.e.e.e.e.e.e.e.e.e.e.e.e.e.e.e.e.e.e.e.e.e.e.e.e.e.e.e.e.e.e.e.e.e.e.e.e.e.e.e.",
"e.e.e.e.e.e.e.e.e.e.e.e.e.e.e.e.e.e.e.e.e.e.e.e.e.e.e.e.e.e.e.e.e.e.e.e.e.e.e.e.",
"e.e.e.e.e.e.e.e.e.e.e.e.e.e.e.e.e.e.e.e.e.e.e.e.e.e.e.e.e.e.e.e.e.e.e.e.e.e.e.e.",
"e.e.e.e.e.e.e.e.e.e.e.e.e.e.e.e.e.e.e.e.e.e.e.e.e.e.e.e.e.e.e.e.e.e.e.e.e.e.e.e.",
"e.e.e.e.e.e.e.e.e.e.e.e.e.e.e.e.e.e.e.e.e.e.e.e.e.e.e.e.e.e.e.e.e.e.e.e.e.e.e.e.",
"e.e.e.e.e.e.e.e.e.e.e.e.e.e.e.e.e.e.e.e.e.e.e.e.e.e.e.e.e.e.e.e.e.e.e.e.e.e.e.e.",
"e.e.e.e.e.e.e.e.e.e.e.e.e.e.e.e.e.e.e.e.e.e.e.e.e.e.e.e.e.e.e.e.e.e.e.e.e.e.e.e.",
"e.e.e.e.e.e.e.e.e.e.e.e.e.e.e.e.e.e.e.e.e.e.e.e.e.e.e.e.e.e.e.e.e.e.e.e.e.e.e.e.",
"e.e.e.e.e.e.e.e.e.e.e.e.> > 9 l l e.e.e.e.e.e.e.e.e.e.e.e.e.e.e.e.e.e.e.e.e.e.e.",
"e.e.e.e.e.e.e.e.e.e.e.: 1 1 0 z z f e.e.e.e.e.e.e.e.e.e.e.e.e.e.e.e.e.e.e.e.e.e.",
"e.e.e.e.e.e.e.e.e.e.e.: 1 1 0 z z f e.e.e.e.e.e.e.e.e.e.e.e.e.e.e.e.e.e.e.e.e.e.",
"e.e.e.e.e.e.e.e.e.e.; ; 1 1 5 w w w r e.e.e.e.e.e.e.e.e.e.e.e.e.e.e.e.e.e.e.e.e.",
"e.e.e.e.e.e.e.: 1 1 1 1 1 1 1 1 1 3 w z z z e.e.e.e.e.e.e.$ & & & & & & & & & & ",
"e.e.e.e.e.e.e.: 1 1 1 1 1 1 1 1 1 3 w z z z e.e.e.e.e.e.e.$ & & & & & & & & & & ",
"e.e.e.e.e.e.e.U Y Y Y Y Y Y Y Y Y R ! ^ ^ Q e.e.e.e.e.e.e.$ & & @ @ # # @ & & & ",
"e.e.e.e.: , i ..-.-.-.-.-.-.-.-.-.;.:.,.,.+.P g g e.e.e.e.$ & & @ e.e.e.@ & & & ",
"e.e.e.e., 1 u @.9.9.9.9.9.9.9.9.9.9.9.9.9.*.T z z e.e.e.e.$ & & % e.e.e.$ & & & ",
"e.e.e.e., 1 u @.9.9.9.9.9.9.9.9.9.9.9.9.9.*.T z z e.e.e.e.$ & & % e.e.e.$ & & & ",
"e.e.e.e., 1 4 A D D ` 6.9.9.9.9.9.7. .D D S c z z h l l a = & & % e.e.e.e.e.e.e.",
"e.e.e.e., 1 - X     o =.9.9.9.9.9.2.B     . , z z z z z y N & & % e.e.e.e.e.e.e.",
"e.e.e.e., 1 - X     o =.9.9.9.9.9.2.B     . , z z z z z y N & & % e.e.e.e.e.e.e.",
"e.e.e.e., 1 < C V V _ 5.0.0.0.0.0.8.[ V V Z s z z z z z b ) ' ' ] e.e.e.e.e.e.e.",
"e.e.e.e., 1 p %.w.w.w.w.w.w.w.w.w.w.w.w.w.>.E z z z z z E >.w.w.q.e.e.e.e.e.e.e.",
"e.e.e.e., 1 p %.w.w.w.w.w.w.w.w.w.w.w.w.w.>.E z z z z z E >.w.w.q.e.e.e.e.e.e.e.",
"e.e.e.e., 1 t o.1.1.1.1.1.1.1.1.1.1.1.1.1.#.K z z z z z J O.4.4.3.e.e.e.e.e.e.e.",
"e.e.e.e., 1 6 W ( ( ( ( ( ( ( ( ( ( ( ( ( ~ n z z z z z v F G G H e.e.e.e.e.e.e.",
"e.e.e.e., 1 1 w z z z z z z z z z z z z z z z z z j k k a + & & % e.e.e.e.e.e.e.",
"e.e.e.e., 1 1 w z z z z z z z z z z z z z z z z z e.e.e.e.$ & & % e.e.e.e.e.e.e.",
"e.e.e.e.q q x { $.$.| L z z z z z z z z z z z z z e.e.e.e.$ & & % e.e.e.e.e.e.e.",
"e.e.e.e.h z M &.w.w.<./ z z z z z z z z z z z z z e.e.e.e.$ & & % e.e.e.e.e.e.e.",
"e.e.e.e.h z M &.w.w.<./ z z z z z z z z z z z z z e.e.e.e.$ & & % e.e.e.e.e.e.e.",
"e.e.e.e.h z m } &.&.X.I z z z z z z z z z z z z z e.e.e.e.$ & & % e.e.e.e.e.e.e.",
"e.e.e.e.h z z z z z z z z z z z z z z z z z z z z e.e.e.e.$ & & % e.e.e.e.e.e.e.",
"e.e.e.e.h z z z z z z z z z z z z z z z z z z z z e.e.e.e.$ & & % e.e.e.e.e.e.e.",
"e.e.e.e.h z z z z z f d r r r r r d f z z z z z z e.e.e.e.$ & & % e.e.e.e.e.e.e.",
"e.e.e.e.h z z z z z r 7 5 5 5 5 5 7 e z z z z z z e.e.e.e.$ & & % e.e.e.e.e.e.e.",
"e.e.e.7 w w w w w w 0 3 1 1 1 1 1 1 7 w w w w w w 8 e.e.e.* & & % e.e.e.e.e.e.e.",
"1 1 1 1 1 1 1 1 1 1 1 1 1 1 1 1 1 1 1 1 1 1 1 1 1 1 1 1 2 O & & % e.e.e.e.e.e.e.",
"1 1 1 1 1 1 1 1 1 1 1 1 1 1 1 1 1 1 1 1 1 1 1 1 1 1 1 1 2 O & & % e.e.e.e.e.e.e.",
"1 1 1 1 1 1 1 1 1 1 1 1 1 1 1 1 1 1 1 1 1 1 1 1 1 1 1 1 2 O & & % e.e.e.e.e.e.e."
};
