/* XPM */
static char *result[] = {
/* columns rows colors chars-per-pixel */
"40 40 104 2 ",
"   c black",
".  c #000103",
"X  c #000308",
"o  c #00060F",
"O  c #05080B",
"+  c #08090D",
"@  c #000710",
"#  c #000711",
"$  c #000D1D",
"%  c #10161E",
"&  c #000E20",
"*  c #001024",
"=  c #001025",
"-  c #011125",
";  c #001228",
":  c #001734",
">  c #001834",
",  c #001837",
"<  c #001938",
"1  c #001B3C",
"2  c #031D3C",
"3  c #1F2B3C",
"4  c #001D41",
"5  c #00234E",
"6  c #0C2748",
"7  c #0C294C",
"8  c #0E2B4E",
"9  c #002552",
"0  c #002553",
"q  c #002755",
"w  c #002859",
"e  c #00295B",
"r  c #002A5D",
"t  c #002A5E",
"y  c #002C61",
"u  c #002D63",
"i  c #002F69",
"p  c #00326F",
"a  c #083469",
"s  c #003371",
"d  c #003372",
"f  c #003575",
"g  c #063A76",
"h  c #003678",
"j  c #00377A",
"k  c #00387D",
"l  c #00397E",
"z  c #073E7F",
"x  c #2D415A",
"c  c #405C7F",
"v  c #003B82",
"b  c #003E88",
"n  c #01418D",
"m  c #0A448B",
"M  c #014391",
"N  c #03489A",
"B  c #104A91",
"V  c #1C569D",
"C  c #034BA1",
"Z  c #044EA6",
"A  c #044EA7",
"S  c #0551AC",
"D  c #0553B0",
"F  c #0554B3",
"G  c #0657B8",
"H  c #0759BD",
"J  c #075ABE",
"K  c #0A5CBF",
"L  c #205AA1",
"P  c #2269BF",
"I  c #3F79BF",
"U  c #48688F",
"Y  c #075BC0",
"T  c #075CC2",
"R  c #0A5CC0",
"E  c #0A5DC0",
"W  c #0A66D5",
"Q  c #0B6BDF",
"!  c #0B6DE3",
"~  c #0D6EE3",
"^  c #0D73EF",
"/  c #0D74F1",
"(  c #0D75F3",
")  c #0E75F2",
"_  c #0E77F7",
"`  c #0E78F7",
"'  c #0E7BFE",
"]  c #0F7CFF",
"[  c #407AC0",
"{  c #5886BF",
"}  c #608ABF",
"|  c #5886C0",
" . c #588AC7",
".. c #5890D5",
"X. c #5891D7",
"o. c #6A98D3",
"O. c #6099DF",
"+. c #629BE1",
"@. c #70A9EF",
"#. c #75AEF4",
"$. c #7CB3F7",
"%. c #7EB7FD",
"&. c #80B9FF",
"*. c None",
/* pixels */
"*.*.*.*.*.*.*.*.*.*.*.*.*.*.*.*.*.*.*.*.*.*.*.*.*.*.*.*.*.*.*.*.*.*.*.*.*.*.*.*.",
"*.*.*.*.*.*.*.*.*.*.*.*.*.*.*.*.*.*.*.*.*.*.*.*.*.*.*.*.*.*.*.*.*.*.*.*.*.*.*.*.",
"*.*.*.*.*.*.*.*.*.*.*.*.*.*.*.*.*.*.*.*.*.*.*.*.*.*.*.*.*.*.*.*.*.*.*.*.*.*.*.*.",
"*.*.*.*.*.*.*.*.*.*.*.*.*.*.*.*.*.*.*.*.*.*.*.*.*.*.*.*.*.*.*.*.*.*.*.*.*.*.*.*.",
"*.*.*.*.*.*.*.*.*.*.*.*.*.*.*.*.*.*.*.*.*.*.*.*.*.*.*.*.*.*.*.*.*.*.*.*.*.*.*.*.",
"*.*.*.*.*.*.*.*.*.*.*.*.*.*.*.*.*.*.*.*.*.*.*.*.*.*.*.*.*.*.*.*.*.*.*.*.*.*.*.*.",
"*.*.*.*.*.*.*.*.*.*.*.*.*.*.*.*.*.*.*.*.*.*.*.*.*.*.*.*.*.*.*.*.*.*.*.*.*.*.*.*.",
"*.*.*.*.*.*.*.*.*.*.*.*.*.*.*.*.*.*.*.*.*.*.*.*.*.*.*.*.*.*.*.*.*.*.*.*.*.*.*.*.",
"*.*.*.*.*.*.*.*.*.*.*.*.*.*.*.*.*.*.*.O *.*.*.*.*.*.*.*.*.*.*.*.*.*.*.*.*.*.*.*.",
"*.*.*.*.*.*.*.*.*.*.*.*.*.*.*.*.*.*.. P   *.*.*.*.*.*.*.*.*.*.*.*.*.*.*.*.*.*.*.",
"*.*.*.*.*.*.*.*.*.*.*.*.*.*.*.*.*.*., K } *.*.*.*.*.*.*.*.*.*.*.*.*.*.*.*.*.*.*.",
"*.*.*.*.*.*.*.*.*.*.*.*.*.*.*.*.*.1 , K $.% *.*.*.*.*.*.*.*.*.*.*.*.*.*.*.*.*.*.",
"*.*.*.*.*.*.*.*.*.*.*.*.*.*.*.*.*.y , K &.U *.*.*.*.*.*.*.*.*.*.*.*.*.*.*.*.*.*.",
"*.*.*.*.*.*.*.*.*.*.*.*.*.*.*.*.X v , K L &.+ *.*.*.*.*.*.*.*.*.*.*.*.*.*.*.*.*.",
"*.*.*.*.*.*.*.*.*.*.*.*.*.*.*.*.s v , K m #.c *.*.*.*.*.*.*.*.*.*.*.*.*.*.*.*.*.",
"*.*.*.*.*.*.*.*.*.*.*.*.*.*.*.& v v , { v @.&.  *.*.*.*.*.*.*.*.*.*.*.*.*.*.*.*.",
"*.*.*.*.*.*.*.*.*.*.*.*.*.*.  f v v , { V %.&.o.*.*.*.*.*.*.*.*.*.*.*.*.*.*.*.*.",
"*.*.*.*.*.*.*.*.*.*.*.*.*.*.> v v C , { L B [ $.3 *.*.*.*.*.*.*.*.*.*.*.*.*.*.*.",
"*.*.*.*.*.*.*.*.*.*.*.*.*.*.e v v Y , K L B &.&.x *.*.*.*.*.*.*.*.*.*.*.*.*.*.*.",
"*.*.*.*.*.*.*.*.*.*.*.*.*.X H T v Y , I +.B &.&.&.  *.*.*.*.*.*.*.*.*.*.*.*.*.*.",
"*.*.*.*.*.*.*.*.*.*.*.*.*.v T ] S Y , | O.@.@.O.O.} *.*.*.*.*.*.*.*.*.*.*.*.*.*.",
"*.*.*.*.*.*.*.*.*.*.*.*.1 ^ ^ ! / Y h ..7 8 a 4 4 6 , *.*.*.*.*.*.*.*.*.*.*.*.*.",
"*.*.*.*.*.*.*.*.*.*.*.*.z ] ] M _ C v X.0 < v r r r 1 *.*.*.*.*.*.*.*.*.*.*.*.*.",
"*.*.*.*.*.*.*.*.*.*.*.*.z ' Z A ] v v X.p < v 1 9 l @ *.*.*.*.*.*.*.*.*.*.*.*.*.",
"*.*.*.*.*.*.*.*.*.*.*.*.2 _ H J F v l  .p < v i d : *.*.*.*.*.*.*.*.*.*.*.*.*.*.",
"*.*.*.*.*.*.*.*.*.*.*.*.*.u T D n v N { p < r k t 5 *.*.*.*.*.*.*.*.*.*.*.*.*.*.",
"*.*.*.*.*.*.*.*.*.*.*.*.*.X v Q v G ) { p < r k <   *.*.*.*.*.*.*.*.*.*.*.*.*.*.",
"*.*.*.*.*.*.*.*.*.*.*.*.*.*.w Q v Q ) { p < r r $ *.*.*.*.*.*.*.*.*.*.*.*.*.*.*.",
"*.*.*.*.*.*.*.*.*.*.*.*.*.*.q v b ] ) { p < r , # *.*.*.*.*.*.*.*.*.*.*.*.*.*.*.",
"*.*.*.*.*.*.*.*.*.*.*.*.*.*.  v ^ ] ) { p < r : *.*.*.*.*.*.*.*.*.*.*.*.*.*.*.*.",
"*.*.*.*.*.*.*.*.*.*.*.*.*.*.*.; ( ] ) K p < r   *.*.*.*.*.*.*.*.*.*.*.*.*.*.*.*.",
"*.*.*.*.*.*.*.*.*.*.*.*.*.*.*.*.~ ] ) K p < * *.*.*.*.*.*.*.*.*.*.*.*.*.*.*.*.*.",
"*.*.*.*.*.*.*.*.*.*.*.*.*.*.*.*.g ] ) K h r = *.*.*.*.*.*.*.*.*.*.*.*.*.*.*.*.*.",
"*.*.*.*.*.*.*.*.*.*.*.*.*.*.*.*.  ` ) K v j *.*.*.*.*.*.*.*.*.*.*.*.*.*.*.*.*.*.",
"*.*.*.*.*.*.*.*.*.*.*.*.*.*.*.*.*.z ) R v @ *.*.*.*.*.*.*.*.*.*.*.*.*.*.*.*.*.*.",
"*.*.*.*.*.*.*.*.*.*.*.*.*.*.*.*.*.*.) E y *.*.*.*.*.*.*.*.*.*.*.*.*.*.*.*.*.*.*.",
"*.*.*.*.*.*.*.*.*.*.*.*.*.*.*.*.*.*.- W o *.*.*.*.*.*.*.*.*.*.*.*.*.*.*.*.*.*.*.",
"*.*.*.*.*.*.*.*.*.*.*.*.*.*.*.*.*.*.*.*.*.*.*.*.*.*.*.*.*.*.*.*.*.*.*.*.*.*.*.*.",
"*.*.*.*.*.*.*.*.*.*.*.*.*.*.*.*.*.*.*.*.*.*.*.*.*.*.*.*.*.*.*.*.*.*.*.*.*.*.*.*.",
"*.*.*.*.*.*.*.*.*.*.*.*.*.*.*.*.*.*.*.*.*.*.*.*.*.*.*.*.*.*.*.*.*.*.*.*.*.*.*.*."
};
