/* XPM */
static char *result[] = {
/* columns rows colors chars-per-pixel */
"40 40 105 2 ",
"   c black",
".  c #000103",
"X  c #000308",
"o  c #00050E",
"O  c #000710",
"+  c #000711",
"@  c #020912",
"#  c #000D1D",
"$  c #0F151D",
"%  c #10171F",
"&  c #000E20",
"*  c #000F22",
"=  c #001024",
"-  c #001530",
";  c #001734",
":  c #001834",
">  c #001837",
",  c #001938",
"<  c #001A3A",
"1  c #001D41",
"2  c #00214A",
"3  c #0F294C",
"4  c #002451",
"5  c #042751",
"6  c #042954",
"7  c #002859",
"8  c #002A5C",
"9  c #002A5D",
"0  c #102D50",
"q  c #102E54",
"w  c #28394F",
"e  c #2C3F57",
"r  c #002C61",
"t  c #002D63",
"y  c #002E67",
"u  c #00326F",
"i  c #103665",
"p  c #003371",
"a  c #003474",
"s  c #003576",
"d  c #063977",
"f  c #003678",
"g  c #00377A",
"h  c #00387D",
"j  c #00397F",
"k  c #073E7F",
"l  c #405C7F",
"z  c #003B82",
"x  c #003C84",
"c  c #003E87",
"v  c #01418D",
"b  c #104381",
"n  c #014290",
"m  c #014391",
"M  c #024698",
"N  c #104A91",
"B  c #144E95",
"V  c #165097",
"C  c #044DA5",
"Z  c #044FA9",
"A  c #0551AC",
"S  c #0552AE",
"D  c #0954AC",
"F  c #0553B0",
"G  c #0A5CBF",
"H  c #205AA1",
"J  c #235DA4",
"K  c #1461BF",
"L  c #2660A7",
"P  c #2C66AC",
"I  c #3171BF",
"U  c #3C76BD",
"Y  c #5479A7",
"T  c #075BC0",
"R  c #0A5CC0",
"E  c #0A5DC0",
"W  c #085FC8",
"Q  c #0963D0",
"!  c #0A64D0",
"~  c #0964D2",
"^  c #0B6BDF",
"/  c #0D71E9",
"(  c #0D73EF",
")  c #0D74F0",
"_  c #0E75F2",
"`  c #0D76F5",
"'  c #0E77F7",
"]  c #0F7CFF",
"[  c #407AC0",
"{  c #5886BF",
"}  c #608ABF",
"|  c #5886C0",
" . c #5887C0",
".. c #588CCB",
"X. c #5089D0",
"o. c #5890D5",
"O. c #6099DF",
"+. c #76AAEB",
"@. c #70A9EF",
"#. c #7AB0F3",
"$. c #78B1F7",
"%. c #7BB4FA",
"&. c #7CB5FB",
"*. c #80B9FF",
"=. c None",
/* pixels */
"=.=.=.=.=.=.=.=.=.=.=.=.=.=.=.=.=.=.=.=.=.=.=.=.=.=.=.=.=.=.=.=.=.=.=.=.=.=.=.=.",
"=.=.=.=.=.=.=.=.=.=.=.=.=.=.=.=.=.=.=.=.=.=.=.=.=.=.=.=.=.=.=.=.=.=.=.=.=.=.=.=.",
"=.=.=.=.=.=.=.=.=.=.=.=.=.=.=.=.=.=.=.=.=.=.=.=.=.=.=.=.=.=.=.=.=.=.=.=.=.=.=.=.",
"=.=.=.=.=.=.=.=.=.=.=.=.=.=.=.=.=.=.=.=.=.=.=.=.=.=.=.=.=.=.=.=.=.=.=.=.=.=.=.=.",
"=.=.=.=.=.=.=.=.=.=.=.=.=.=.=.=.=.=.=.=.=.=.=.=.=.=.=.=.=.=.=.=.=.=.=.=.=.=.=.=.",
"=.=.=.=.=.=.=.=.=.=.=.=.=.=.=.=.=.=.=.=.=.=.=.=.=.=.=.=.=.=.=.=.=.=.=.=.=.=.=.=.",
"=.=.=.=.=.=.=.=.=.=.=.=.=.=.=.=.=.=.=.  =.=.=.=.=.=.=.=.=.=.=.=.=.=.=.=.=.=.=.=.",
"=.=.=.=.=.=.=.=.=.=.=.=.=.=.=.=.=.=.. I   =.=.=.=.=.=.=.=.=.=.=.=.=.=.=.=.=.=.=.",
"=.=.=.=.=.=.=.=.=.=.=.=.=.=.=.=.=.=.> G } =.=.=.=.=.=.=.=.=.=.=.=.=.=.=.=.=.=.=.",
"=.=.=.=.=.=.=.=.=.=.=.=.=.=.=.=.=.: > G +.$ =.=.=.=.=.=.=.=.=.=.=.=.=.=.=.=.=.=.",
"=.=.=.=.=.=.=.=.=.=.=.=.=.=.=.=.=.4 > G *.e =.=.=.=.=.=.=.=.=.=.=.=.=.=.=.=.=.=.",
"=.=.=.=.=.=.=.=.=.=.=.=.=.=.=.=.  z > G P *.=.=.=.=.=.=.=.=.=.=.=.=.=.=.=.=.=.=.",
"=.=.=.=.=.=.=.=.=.=.=.=.=.=.=.=.p z > G N $.l =.=.=.=.=.=.=.=.=.=.=.=.=.=.=.=.=.",
"=.=.=.=.=.=.=.=.=.=.=.=.=.=.=.& z z > { z @.*.  =.=.=.=.=.=.=.=.=.=.=.=.=.=.=.=.",
"=.=.=.=.=.=.=.=.=.=.=.=.=.=.=.t z z > { V %.*.Y =.=.=.=.=.=.=.=.=.=.=.=.=.=.=.=.",
"=.=.=.=.=.=.=.=.=.=.=.=.=.=.# z z m > { H N [ #.=.=.=.=.=.=.=.=.=.=.=.=.=.=.=.=.",
"=.=.=.=.=.=.=.=.=.=.=.=.=.=.7 z z T > K H N $.*.w =.=.=.=.=.=.=.=.=.=.=.=.=.=.=.",
"=.=.=.=.=.=.=.=.=.=.=.=.=.X A F z T > I X.N *.*.*.  =.=.=.=.=.=.=.=.=.=.=.=.=.=.",
"=.=.=.=.=.=.=.=.=.=.=.=.=.z ~ ] M T > { O.@.&.$.$.} =.=.=.=.=.=.=.=.=.=.=.=.=.=.",
"=.=.=.=.=.=.=.=.=.=.=.=.: z z ] ] T ,  .O.J B z U +.3 =.=.=.=.=.=.=.=.=.=.=.=.=.",
"=.=.=.=.=.=.=.=.=.=.=.=.1 c ` ' v , > | *.P H L *.*.% =.=.=.=.=.=.=.=.=.=.=.=.=.",
"=.=.=.=.=.=.=.=.=.=.=.=.d ( S Z ( f f o.b 0 N q i N @ =.=.=.=.=.=.=.=.=.=.=.=.=.",
"=.=.=.=.=.=.=.=.=.=.=.=.6 ' A Q W z j ..u , z 9 s < o =.=.=.=.=.=.=.=.=.=.=.=.=.",
"=.=.=.=.=.=.=.=.=.=.=.=.=.g ~ C n z x { u , 9 h y 8 =.=.=.=.=.=.=.=.=.=.=.=.=.=.",
"=.=.=.=.=.=.=.=.=.=.=.=.=.X z ^ z A _ { u , 9 h ,   =.=.=.=.=.=.=.=.=.=.=.=.=.=.",
"=.=.=.=.=.=.=.=.=.=.=.=.=.=.7 ^ z Q _ { u , 9 u * =.=.=.=.=.=.=.=.=.=.=.=.=.=.=.",
"=.=.=.=.=.=.=.=.=.=.=.=.=.=.7 v z ] _ { u , 9 , + =.=.=.=.=.=.=.=.=.=.=.=.=.=.=.",
"=.=.=.=.=.=.=.=.=.=.=.=.=.=.  z ( ] _ { u , 9 ; =.=.=.=.=.=.=.=.=.=.=.=.=.=.=.=.",
"=.=.=.=.=.=.=.=.=.=.=.=.=.=.=.* ) ] _ G u , 9   =.=.=.=.=.=.=.=.=.=.=.=.=.=.=.=.",
"=.=.=.=.=.=.=.=.=.=.=.=.=.=.=.=./ ] _ G u , - =.=.=.=.=.=.=.=.=.=.=.=.=.=.=.=.=.",
"=.=.=.=.=.=.=.=.=.=.=.=.=.=.=.=.D ] _ G a 2 & =.=.=.=.=.=.=.=.=.=.=.=.=.=.=.=.=.",
"=.=.=.=.=.=.=.=.=.=.=.=.=.=.=.=.  ] _ G z z =.=.=.=.=.=.=.=.=.=.=.=.=.=.=.=.=.=.",
"=.=.=.=.=.=.=.=.=.=.=.=.=.=.=.=.=.k _ R z O =.=.=.=.=.=.=.=.=.=.=.=.=.=.=.=.=.=.",
"=.=.=.=.=.=.=.=.=.=.=.=.=.=.=.=.=.=._ E r =.=.=.=.=.=.=.=.=.=.=.=.=.=.=.=.=.=.=.",
"=.=.=.=.=.=.=.=.=.=.=.=.=.=.=.=.=.=.5 ! = =.=.=.=.=.=.=.=.=.=.=.=.=.=.=.=.=.=.=.",
"=.=.=.=.=.=.=.=.=.=.=.=.=.=.=.=.=.=.=.  =.=.=.=.=.=.=.=.=.=.=.=.=.=.=.=.=.=.=.=.",
"=.=.=.=.=.=.=.=.=.=.=.=.=.=.=.=.=.=.=.=.=.=.=.=.=.=.=.=.=.=.=.=.=.=.=.=.=.=.=.=.",
"=.=.=.=.=.=.=.=.=.=.=.=.=.=.=.=.=.=.=.=.=.=.=.=.=.=.=.=.=.=.=.=.=.=.=.=.=.=.=.=.",
"=.=.=.=.=.=.=.=.=.=.=.=.=.=.=.=.=.=.=.=.=.=.=.=.=.=.=.=.=.=.=.=.=.=.=.=.=.=.=.=.",
"=.=.=.=.=.=.=.=.=.=.=.=.=.=.=.=.=.=.=.=.=.=.=.=.=.=.=.=.=.=.=.=.=.=.=.=.=.=.=.=."
};
