/* XPM */
static char *result[] = {
/* columns rows colors chars-per-pixel */
"40 40 112 2 ",
"   c black",
".  c #000102",
"X  c #000208",
"o  c #000308",
"O  c #00060D",
"+  c #00050E",
"@  c #00070F",
"#  c #070B0F",
"$  c #000711",
"%  c #020912",
"&  c #000B1A",
"*  c #000B1B",
"=  c #000D1D",
"-  c #000D1E",
";  c #010F1F",
":  c #10171F",
">  c #001126",
",  c #001734",
"<  c #001837",
"1  c #001938",
"2  c #031E3E",
"3  c #001D41",
"4  c #001F45",
"5  c #00214A",
"6  c #1B2D43",
"7  c #002451",
"8  c #042954",
"9  c #002859",
"0  c #00295B",
"q  c #002A5C",
"w  c #002A5D",
"e  c #102E54",
"r  c #28394F",
"t  c #022D62",
"y  c #002D64",
"u  c #002E65",
"i  c #002F68",
"p  c #00306A",
"a  c #00326E",
"s  c #00326F",
"d  c #103461",
"f  c #003371",
"g  c #003779",
"h  c #01387B",
"j  c #00387D",
"k  c #374F6D",
"l  c #3C5576",
"z  c #003B82",
"x  c #003D85",
"c  c #003D86",
"v  c #003F89",
"b  c #054087",
"n  c #01428F",
"m  c #08458F",
"M  c #0E488F",
"N  c #014391",
"B  c #074691",
"V  c #024697",
"C  c #074A99",
"Z  c #074A9A",
"A  c #104A91",
"S  c #1B569C",
"D  c #1E589F",
"F  c #034BA1",
"G  c #074DA1",
"H  c #0653AF",
"J  c #0759BC",
"K  c #075ABE",
"L  c #0A5CBF",
"P  c #0F5FBF",
"I  c #205AA1",
"U  c #2C66AC",
"Y  c #3872B8",
"T  c #3C76BC",
"R  c #4D75A7",
"E  c #4274B1",
"W  c #447CBF",
"Q  c #075BC0",
"!  c #0B5EC3",
"~  c #085FC8",
"^  c #095FC8",
"/  c #0962CD",
"(  c #0B63CD",
")  c #0A67D7",
"_  c #0B6CE1",
"`  c #0D6EE3",
"'  c #0D6FE6",
"]  c #0C70E9",
"[  c #0C71EB",
"{  c #0D73EF",
"}  c #0D74F1",
"|  c #0E75F2",
" . c #0E78F8",
".. c #0E79FA",
"X. c #0F7CFF",
"o. c #5886BF",
"O. c #5C87BD",
"+. c #608ABF",
"@. c #4881C8",
"#. c #5886C0",
"$. c #5887C0",
"%. c #5887C1",
"&. c #5089D0",
"*. c #548DD4",
"=. c #6099DF",
"-. c #59A4FF",
";. c #69A2E8",
":. c #75A9E9",
">. c #78ADEF",
",. c #7CB5FB",
"<. c #80B9FF",
"1. c None",
/* pixels */
"1.1.1.1.1.1.1.1.1.1.1.1.1.1.1.1.1.1.1.1.1.1.1.1.1.1.1.1.1.1.1.1.1.1.1.1.1.1.1.1.",
"1.1.1.1.1.1.1.1.1.1.1.1.1.1.1.1.1.1.1.1.1.1.1.1.1.1.1.1.1.1.1.1.1.1.1.1.1.1.1.1.",
"1.1.1.1.1.1.1.1.1.1.1.1.1.1.1.1.1.1.1.1.1.1.1.1.1.1.1.1.1.1.1.1.1.1.1.1.1.1.1.1.",
"1.1.1.1.1.1.1.1.1.1.1.1.1.1.1.1.1.1.1.1.1.1.1.1.1.1.1.1.1.1.1.1.1.1.1.1.1.1.1.1.",
"1.1.1.1.1.1.1.1.1.1.1.1.1.1.1.1.1.1.1.1.1.1.1.1.1.1.1.1.1.1.1.1.1.1.1.1.1.1.1.1.",
"1.1.1.1.1.1.1.1.1.1.1.1.1.1.1.1.1.1.1.1.1.1.1.1.1.1.1.1.1.1.1.1.1.1.1.1.1.1.1.1.",
"1.1.1.1.1.1.1.1.1.1.1.1.1.1.1.1.1.1.. R   1.1.1.1.1.1.1.1.1.1.1.1.1.1.1.1.1.1.1.",
"1.1.1.1.1.1.1.1.1.1.1.1.1.1.1.1.1.1.= o.k 1.1.1.1.1.1.1.1.1.1.1.1.1.1.1.1.1.1.1.",
"1.1.1.1.1.1.1.1.1.1.1.1.1.1.1.1.1.X < o.! 1.1.1.1.1.1.1.1.1.1.1.1.1.1.1.1.1.1.1.",
"1.1.1.1.1.1.1.1.1.1.1.1.1.1.1.1.1.3 < o.K ; 1.1.1.1.1.1.1.1.1.1.1.1.1.1.1.1.1.1.",
"1.1.1.1.1.1.1.1.1.1.1.1.1.1.1.1.  z < W F -.1.1.1.1.1.1.1.1.1.1.1.1.1.1.1.1.1.1.",
"1.1.1.1.1.1.1.1.1.1.1.1.1.1.1.1.u z < L x } l 1.1.1.1.1.1.1.1.1.1.1.1.1.1.1.1.1.",
"1.1.1.1.1.1.1.1.1.1.1.1.1.1.1.& g z < L z Y +.1.1.1.1.1.1.1.1.1.1.1.1.1.1.1.1.1.",
"1.1.1.1.1.1.1.1.1.1.1.1.1.1.1.> { z < L =.z <.# 1.1.1.1.1.1.1.1.1.1.1.1.1.1.1.1.",
"1.1.1.1.1.1.1.1.1.1.1.1.1.1.  V ..z < L =.z *.>.1.1.1.1.1.1.1.1.1.1.1.1.1.1.1.1.",
"1.1.1.1.1.1.1.1.1.1.1.1.1.1.9 F X.Q < o.=.z &.<.r 1.1.1.1.1.1.1.1.1.1.1.1.1.1.1.",
"1.1.1.1.1.1.1.1.1.1.1.1.1.o ^ F X.Q < o.,.M <.<.:.  1.1.1.1.1.1.1.1.1.1.1.1.1.1.",
"1.1.1.1.1.1.1.1.1.1.1.1.1.4 ) X.X.Q < o.<.@.<.T U k 1.1.1.1.1.1.1.1.1.1.1.1.1.1.",
"1.1.1.1.1.1.1.1.1.1.1.1.O X.X.X.X.Q 1 $.=.;.z z b O.1.1.1.1.1.1.1.1.1.1.1.1.1.1.",
"1.1.1.1.1.1.1.1.1.1.1.1.B X.X.X.X.t < #.D z z z S I : 1.1.1.1.1.1.1.1.1.1.1.1.1.",
"1.1.1.1.1.1.1.1.1.1.1.1.Z X.X.( h < 5 E s a a I I Y : 1.1.1.1.1.1.1.1.1.1.1.1.1.",
"1.1.1.1.1.1.1.1.1.1.1.1.Z  .N ' ' H z / i < < e A d % 1.1.1.1.1.1.1.1.1.1.1.1.1.",
"1.1.1.1.1.1.1.1.1.1.1.1.1.J ) X.X.z j L s 1 1 1 p 4 1.1.1.1.1.1.1.1.1.1.1.1.1.1.",
"1.1.1.1.1.1.1.1.1.1.1.1.1.o z X.N z j L s 1 1 1 1   1.1.1.1.1.1.1.1.1.1.1.1.1.1.",
"1.1.1.1.1.1.1.1.1.1.1.1.1.1.G ] c z / L s 1 1 1 = 1.1.1.1.1.1.1.1.1.1.1.1.1.1.1.",
"1.1.1.1.1.1.1.1.1.1.1.1.1.1.C ~ z Q | L s 1 w 1 $ 1.1.1.1.1.1.1.1.1.1.1.1.1.1.1.",
"1.1.1.1.1.1.1.1.1.1.1.1.1.1.@ z _ v | L s 1 w , 1.1.1.1.1.1.1.1.1.1.1.1.1.1.1.1.",
"1.1.1.1.1.1.1.1.1.1.1.1.1.1.1.7 { F | L s 1 w * 1.1.1.1.1.1.1.1.1.1.1.1.1.1.1.1.",
"1.1.1.1.1.1.1.1.1.1.1.1.1.1.1.2 n Q | P s 1 0   1.1.1.1.1.1.1.1.1.1.1.1.1.1.1.1.",
"1.1.1.1.1.1.1.1.1.1.1.1.1.1.1.1.f [ | o.s y 3 1.1.1.1.1.1.1.1.1.1.1.1.1.1.1.1.1.",
"1.1.1.1.1.1.1.1.1.1.1.1.1.1.1.1.  X.| o.z z 1.1.1.1.1.1.1.1.1.1.1.1.1.1.1.1.1.1.",
"1.1.1.1.1.1.1.1.1.1.1.1.1.1.1.1.1.m | o.z - 1.1.1.1.1.1.1.1.1.1.1.1.1.1.1.1.1.1.",
"1.1.1.1.1.1.1.1.1.1.1.1.1.1.1.1.1.8 | o.f + 1.1.1.1.1.1.1.1.1.1.1.1.1.1.1.1.1.1.",
"1.1.1.1.1.1.1.1.1.1.1.1.1.1.1.1.1.1.` %.q 1.1.1.1.1.1.1.1.1.1.1.1.1.1.1.1.1.1.1.",
"1.1.1.1.1.1.1.1.1.1.1.1.1.1.1.1.1.1.1.6 1.1.1.1.1.1.1.1.1.1.1.1.1.1.1.1.1.1.1.1.",
"1.1.1.1.1.1.1.1.1.1.1.1.1.1.1.1.1.1.1.1.1.1.1.1.1.1.1.1.1.1.1.1.1.1.1.1.1.1.1.1.",
"1.1.1.1.1.1.1.1.1.1.1.1.1.1.1.1.1.1.1.1.1.1.1.1.1.1.1.1.1.1.1.1.1.1.1.1.1.1.1.1.",
"1.1.1.1.1.1.1.1.1.1.1.1.1.1.1.1.1.1.1.1.1.1.1.1.1.1.1.1.1.1.1.1.1.1.1.1.1.1.1.1.",
"1.1.1.1.1.1.1.1.1.1.1.1.1.1.1.1.1.1.1.1.1.1.1.1.1.1.1.1.1.1.1.1.1.1.1.1.1.1.1.1.",
"1.1.1.1.1.1.1.1.1.1.1.1.1.1.1.1.1.1.1.1.1.1.1.1.1.1.1.1.1.1.1.1.1.1.1.1.1.1.1.1."
};
