/* XPM */
static char *result[] = {
/* columns rows colors chars-per-pixel */
"40 40 102 2 ",
"   c black",
".  c #000002",
"X  c #000206",
"o  c #000208",
"O  c #000308",
"+  c #00050C",
"@  c #00050E",
"#  c #00070F",
"$  c #080A0E",
"%  c #000610",
"&  c #000710",
"*  c #000711",
"=  c #010F1E",
"-  c #10171F",
";  c #000E20",
":  c #001024",
">  c #00142D",
",  c #00142E",
"<  c #001531",
"1  c #001834",
"2  c #021935",
"3  c #001836",
"4  c #001837",
"5  c #001938",
"6  c #001B3C",
"7  c #021C3D",
"8  c #001D41",
"9  c #002047",
"0  c #002149",
"q  c #002451",
"w  c #002859",
"e  c #002A5D",
"r  c #26374C",
"t  c #2B3D54",
"y  c #002C61",
"u  c #002D64",
"i  c #002E66",
"p  c #002F68",
"a  c #00306A",
"s  c #00326F",
"d  c #003472",
"f  c #003677",
"g  c #063977",
"h  c #003678",
"j  c #003779",
"k  c #00387B",
"l  c #073C7B",
"z  c #00387D",
"x  c #00397F",
"c  c #013A7E",
"v  c #003A7F",
"b  c #073E7F",
"n  c #0C3F7D",
"m  c #2C435F",
"M  c #10417D",
"N  c #003A80",
"B  c #003B82",
"V  c #003F89",
"C  c #074188",
"Z  c #024595",
"A  c #054898",
"S  c #03489C",
"D  c #054A9E",
"F  c #104A91",
"G  c #185299",
"H  c #034BA1",
"J  c #0553B0",
"K  c #0657B8",
"L  c #0B5DBF",
"P  c #446287",
"I  c #426DA1",
"U  c #5479A7",
"Y  c #075BC0",
"T  c #0962CD",
"R  c #0A67D7",
"E  c #0B6BDF",
"W  c #0D6CDF",
"Q  c #0D73EF",
"!  c #0D74EF",
"~  c #0D75F3",
"^  c #0E75F2",
"/  c #0E77F7",
"(  c #0E79FA",
")  c #0E79FB",
"_  c #0F7CFF",
"`  c #407AC0",
"'  c #5886BF",
"]  c #608ABF",
"[  c #5886C0",
"{  c #548DD4",
"}  c #5890D4",
"|  c #5891D7",
" . c #6099DF",
".. c #629BE1",
"X. c #69A2E8",
"o. c #72A4E3",
"O. c #70A9EF",
"+. c #78ADEF",
"@. c #78B1F7",
"#. c #7FB7FD",
"$. c #80B9FF",
"%. c None",
/* pixels */
"%.%.%.%.%.%.%.%.%.%.%.%.%.%.%.%.%.%.%.%.%.%.%.%.%.%.%.%.%.%.%.%.%.%.%.%.%.%.%.%.",
"%.%.%.%.%.%.%.%.%.%.%.%.%.%.%.%.%.%.%.%.%.%.%.%.%.%.%.%.%.%.%.%.%.%.%.%.%.%.%.%.",
"%.%.%.%.%.%.%.%.%.%.%.%.%.%.%.%.%.%.%.%.%.%.%.%.%.%.%.%.%.%.%.%.%.%.%.%.%.%.%.%.",
"%.%.%.%.%.%.%.%.%.%.%.%.%.%.%.%.%.%.%.%.%.%.%.%.%.%.%.%.%.%.%.%.%.%.%.%.%.%.%.%.",
"%.%.%.%.%.%.%.%.%.%.%.%.%.%.%.%.%.%.%.%.%.%.%.%.%.%.%.%.%.%.%.%.%.%.%.%.%.%.%.%.",
"%.%.%.%.%.%.%.%.%.%.%.%.%.%.%.%.%.%.%.%.%.%.%.%.%.%.%.%.%.%.%.%.%.%.%.%.%.%.%.%.",
"%.%.%.%.%.%.%.%.%.%.%.%.%.%.%.%.%.%.%.%.%.%.%.%.%.%.%.%.%.%.%.%.%.%.%.%.%.%.%.%.",
"%.%.%.%.%.%.%.%.%.%.%.%.%.%.%.%.%.%.. m %.%.%.%.%.%.%.%.%.%.%.%.%.%.%.%.%.%.%.%.",
"%.%.%.%.%.%.%.%.%.%.%.%.%.%.%.%.%.%.X ' $ %.%.%.%.%.%.%.%.%.%.%.%.%.%.%.%.%.%.%.",
"%.%.%.%.%.%.%.%.%.%.%.%.%.%.%.%.%.%.4 ' ] %.%.%.%.%.%.%.%.%.%.%.%.%.%.%.%.%.%.%.",
"%.%.%.%.%.%.%.%.%.%.%.%.%.%.%.%.%.8 4 ' $.- %.%.%.%.%.%.%.%.%.%.%.%.%.%.%.%.%.%.",
"%.%.%.%.%.%.%.%.%.%.%.%.%.%.%.%.  j 4 ' $.o.%.%.%.%.%.%.%.%.%.%.%.%.%.%.%.%.%.%.",
"%.%.%.%.%.%.%.%.%.%.%.%.%.%.%.%.6 B 4 ' F @.t %.%.%.%.%.%.%.%.%.%.%.%.%.%.%.%.%.",
"%.%.%.%.%.%.%.%.%.%.%.%.%.%.%.%.d B 4 ' B X.P %.%.%.%.%.%.%.%.%.%.%.%.%.%.%.%.%.",
"%.%.%.%.%.%.%.%.%.%.%.%.%.%.%.; T B 4 ' B B $.  %.%.%.%.%.%.%.%.%.%.%.%.%.%.%.%.",
"%.%.%.%.%.%.%.%.%.%.%.%.%.%.  V ~ B 4 ' B B O.+.%.%.%.%.%.%.%.%.%.%.%.%.%.%.%.%.",
"%.%.%.%.%.%.%.%.%.%.%.%.%.%.q H _ K 4 ' B B ` #.r %.%.%.%.%.%.%.%.%.%.%.%.%.%.%.",
"%.%.%.%.%.%.%.%.%.%.%.%.%.o A H _ Y 4 ' B B $.$.U %.%.%.%.%.%.%.%.%.%.%.%.%.%.%.",
"%.%.%.%.%.%.%.%.%.%.%.%.%.# R _ _ Y 4 ' B C $.$.$.$ %.%.%.%.%.%.%.%.%.%.%.%.%.%.",
"%.%.%.%.%.%.%.%.%.%.%.%.%.B S _ _ Y 4 [ B O.$.$.$.] %.%.%.%.%.%.%.%.%.%.%.%.%.%.",
"%.%.%.%.%.%.%.%.%.%.%.%.8 B B E E D 4 [ G {  ...$.$.- %.%.%.%.%.%.%.%.%.%.%.%.%.",
"%.%.%.%.%.%.%.%.%.%.%.%.g Q Q B B h h } n 8 8 c M F 7 %.%.%.%.%.%.%.%.%.%.%.%.%.",
"%.%.%.%.%.%.%.%.%.%.%.%.b ) Z J B B B | s 5 5 6 p i & %.%.%.%.%.%.%.%.%.%.%.%.%.",
"%.%.%.%.%.%.%.%.%.%.%.%.%.! R B B B z ' s 5 5 5 a > %.%.%.%.%.%.%.%.%.%.%.%.%.%.",
"%.%.%.%.%.%.%.%.%.%.%.%.%., S B B B T ' s u q 5 9 : %.%.%.%.%.%.%.%.%.%.%.%.%.%.",
"%.%.%.%.%.%.%.%.%.%.%.%.%.O f B B Y ^ ' s h e 5 ,   %.%.%.%.%.%.%.%.%.%.%.%.%.%.",
"%.%.%.%.%.%.%.%.%.%.%.%.%.%.w B B / ^ ' s h z 5 * %.%.%.%.%.%.%.%.%.%.%.%.%.%.%.",
"%.%.%.%.%.%.%.%.%.%.%.%.%.%.1 B K _ ^ ' s h B 3 + %.%.%.%.%.%.%.%.%.%.%.%.%.%.%.",
"%.%.%.%.%.%.%.%.%.%.%.%.%.%.  k Q _ ^ ' s h B < %.%.%.%.%.%.%.%.%.%.%.%.%.%.%.%.",
"%.%.%.%.%.%.%.%.%.%.%.%.%.%.%.2 ( _ ^ ' s h B   %.%.%.%.%.%.%.%.%.%.%.%.%.%.%.%.",
"%.%.%.%.%.%.%.%.%.%.%.%.%.%.%.%.W _ ^ ' s h 8 %.%.%.%.%.%.%.%.%.%.%.%.%.%.%.%.%.",
"%.%.%.%.%.%.%.%.%.%.%.%.%.%.%.%.= _ ^ ' x N @ %.%.%.%.%.%.%.%.%.%.%.%.%.%.%.%.%.",
"%.%.%.%.%.%.%.%.%.%.%.%.%.%.%.%.%.L ^ ' B 0 %.%.%.%.%.%.%.%.%.%.%.%.%.%.%.%.%.%.",
"%.%.%.%.%.%.%.%.%.%.%.%.%.%.%.%.%.l ^ ' v % %.%.%.%.%.%.%.%.%.%.%.%.%.%.%.%.%.%.",
"%.%.%.%.%.%.%.%.%.%.%.%.%.%.%.%.%.%.^ ' y %.%.%.%.%.%.%.%.%.%.%.%.%.%.%.%.%.%.%.",
"%.%.%.%.%.%.%.%.%.%.%.%.%.%.%.%.%.%.O I   %.%.%.%.%.%.%.%.%.%.%.%.%.%.%.%.%.%.%.",
"%.%.%.%.%.%.%.%.%.%.%.%.%.%.%.%.%.%.%.%.%.%.%.%.%.%.%.%.%.%.%.%.%.%.%.%.%.%.%.%.",
"%.%.%.%.%.%.%.%.%.%.%.%.%.%.%.%.%.%.%.%.%.%.%.%.%.%.%.%.%.%.%.%.%.%.%.%.%.%.%.%.",
"%.%.%.%.%.%.%.%.%.%.%.%.%.%.%.%.%.%.%.%.%.%.%.%.%.%.%.%.%.%.%.%.%.%.%.%.%.%.%.%.",
"%.%.%.%.%.%.%.%.%.%.%.%.%.%.%.%.%.%.%.%.%.%.%.%.%.%.%.%.%.%.%.%.%.%.%.%.%.%.%.%."
};
