/* XPM */
static char *_a2b805dbe7c4b44caada998c565ec93pDTIaTdRLK9Jb2N8[] = {
/* columns rows colors chars-per-pixel */
"40 40 2 1 ",
"  c None",
". c blac",
/* pixels */
"                                        ",
"     ..............................     ",
"     ..............................     ",
"   ..................................   ",
"   ..................................   ",
"   .....                        .....   ",
"   ....                          ....   ",
"   ....                          ....   ",
"   ....                          ....   ",
"   ....   .....                  ....   ",
"   ....   .....                  ....   ",
"   ....   .....                  ....   ",
"   ....   .....                  ....   ",
"   ....   .....                  ....   ",
"   ....   .....                  ....   ",
"   ....   .....                  ....   ",
"   ....   .....                  ....   ",
"   ....   .....                  ....   ",
"   ....   .....                  ....   ",
"   ....   .....                  ....   ",
"   ....   .....                  ....   ",
"   ....   .....                  ....   ",
"   ....   .....                  ....   ",
"   ....   .....                  ....   ",
"   ....   .....                  ....   ",
"   ....   .....                  ....   ",
"   ....   .....                  ....   ",
"   ....   .....                  ....   ",
"   ....   .....                  ....   ",
"   ....   .....                  ....   ",
"   ....   .....                  ....   ",
"   ....                          ....   ",
"   ....                          ....   ",
"   ....                          ....   ",
"   .....                        .....   ",
"   ..................................   ",
"   ..................................   ",
"     ..............................     ",
"     ..............................     "
"                                        ",
};