/* XPM */
static char *_9e6af757290452dae2f8685db69ff32d8bnQOO2BWvehye1[] = {
/* columns rows colors chars-per-pixel */
"40 40 144 2 ",
"   c None",
".  c black",
"X  c #100408",
"o  c #130509",
"O  c #13050A",
"+  c #19060C",
"@  c #260A13",
"#  c #2D0B16",
"$  c #370E1C",
"%  c #390E1C",
"&  c #390F1D",
"*  c #3F101F",
"=  c #401020",
"-  c #4D1326",
";  c #4D1427",
":  c #56162B",
">  c #58172C",
",  c #661A33",
"<  c #671A33",
"1  c #661B33",
"2  c #671B33",
"3  c #661A34",
"4  c #671A34",
"5  c #661B34",
"6  c #671B34",
"7  c #681C35",
"8  c #691D36",
"9  c #6A1E37",
"0  c #6B1F38",
"q  c #6B2039",
"w  c #69233A",
"e  c #6D223B",
"r  c #6E223B",
"t  c #6A243B",
"y  c #6E223C",
"u  c #6A263D",
"i  c #6B273E",
"p  c #6B293F",
"a  c #6B2A3F",
"s  c #6C283E",
"d  c #70243D",
"f  c #71253F",
"g  c #6C2B41",
"h  c #6C2D42",
"j  c #6D2F44",
"k  c #732740",
"l  c #752942",
"z  c #762D45",
"x  c #782C45",
"c  c #7A2E47",
"v  c #6E3246",
"b  c #6F3548",
"n  c #6F3549",
"m  c #793149",
"M  c #7B334B",
"N  c #7D314B",
"B  c #70384B",
"V  c #70394B",
"C  c #713A4C",
"Z  c #713B4D",
"A  c #713C4E",
"S  c #723E4F",
"D  c #7F3850",
"F  c #734151",
"G  c #734152",
"H  c #734253",
"J  c #734353",
"K  c #744454",
"L  c #744555",
"P  c #744655",
"I  c #744656",
"U  c #754958",
"Y  c #764958",
"T  c #764959",
"R  c #754A58",
"E  c #754A59",
"W  c #764A59",
"Q  c #7A4D5C",
"!  c #7A4E5D",
"~  c #80344E",
"^  c #823650",
"/  c #833750",
"(  c #843851",
")  c #823C53",
"_  c #863A54",
"`  c #873B55",
"'  c #873C55",
"]  c #883C56",
"[  c #893F58",
"{  c #8A3E58",
"}  c #8B3F58",
"|  c #8E425B",
" . c #8D435C",
".. c #8E475F",
"X. c #924660",
"o. c #934761",
"O. c #914A62",
"+. c #944862",
"@. c #954963",
"#. c #964963",
"$. c #964A64",
"%. c #934F66",
"&. c #9B4E69",
"*. c #9B4F69",
"=. c #825464",
"-. c #835565",
";. c #865767",
":. c #9C516B",
">. c #9D526B",
",. c #98556B",
"<. c #9E5B72",
"1. c #9D5C72",
"2. c #9F5F74",
"3. c #A15871",
"4. c #A25972",
"5. c #A45B74",
"6. c #A55D76",
"7. c #A65F77",
"8. c #A16076",
"9. c #A76078",
"0. c #A4647A",
"q. c #A6667B",
"w. c #A7687D",
"e. c #A96A7F",
"r. c #A67384",
"t. c #B37087",
"y. c #B57389",
"u. c #B6758B",
"i. c #B17C8F",
"p. c #B8798E",
"a. c #B97A8F",
"s. c #B27E90",
"d. c #B68193",
"f. c #BC8095",
"g. c #BD8195",
"h. c #BD8296",
"j. c #C1879A",
"k. c #C2869B",
"l. c #C2879B",
"z. c #C3889C",
"x. c #C4899D",
"c. c #C68B9F",
"v. c #CB94A6",
"b. c #CC94A7",
/* pixels */
"6 6 6 6 6 6 6 6 6 6 6 6 6 6 6 6 6 6 6 w S W W W ;.d.b.b.%.6 6 6 6 6 w S W W r.b.",
"6 6 6 6 6 6 6 6 6 6 6 6 6 6 6 6 6 6 t v H W W W ;.d.b.b.%.6 6 6 6 6 w S W W r.b.",
"6 6 6 6 6 6 6 6 6 6 6 6 6 6 6 6 , , b W W W W W ;.d.b.b.%.6 6 6 6 6 t S W W r.b.",
"                      a b b b b b b J W W W W W ;.d.b.b.w.                      ",
"                        W W W W I G J S J S S L -.s.v.v.                        ",
"                    W W W W W W Z i i i i i i Z !                               ",
"                    W J B B B B h 6 6 6 6 6 6 g b s                             ",
"                    U B 6 6 6 6 6 6 6 6 6 6 6 6 6 6 6 6                         ",
"                    j i 6 6 6 6 6 6 6 6 6 6 6 6 6 6 6 6 6                       ",
"                    6 6 6 6 6 6 6 6 6 6 6 6 6 6 6 6 6 6 6 6                     ",
"                  6 , 6 6 6 6 6 6 6 6 6 6 6 6 6 6 6 6 6 6 6                     ",
"                , 6 6 6 6 6 6 6 6 6 6 6 6 6 6 6 6 6 6 6 6 6 6                   ",
"              6 6 6 6 6 6 6 6 6 6 6 6 6 6 6 6 6 6 6 6 6 6 6 6 * . . . . .       ",
"              6 6 6 6 6 6 6 6 6 k ^ ^ [ ,.2.2.D 6 6 6 6 6 6 6 : % + . . .       ",
"              6 6 6 6 6 6 6 7 r N *.*.5.p.c.b.1.z 0 6 6 6 6 6 6 6 # . . .       ",
"          6 , 6 6 6 6 6 6 6 r ( o.*.*.:.5.y.b.h.0.m 6 6 6 6 6 6 6 # . . .       ",
"          2 7 7 7 7 l c c c ~ X.:.*.*.*.*.7.a.k.h...k 6 6 6 6 6 6 % . .         ",
"          2 2 7 1 d | *.*.*.*.*.*.*.*.*.*.*.*.u.k.7.` 6 6 6 6 6 6               ",
"        @.` ~ ( ( ] @.*.*.*.*.*.*.*.*.*.*.*.*.u.z.9.' 6 6 6 6 6 6               ",
"      &.:.&.:.&.&.:.*.*.*.*.*.*.*.*.*.*.*.*.*.u.k.9.` 6 6 6 6 6 6               ",
"      *.&.&.:.&.*.:.*.*.*.*.*.*.*.*.*.*.*.*.*.u.k.9.` 6 6 6 6 6 6               ",
"        #.[ ` ` ' ] @.*.*.&.*.*.*.*.*.*.*.*.*.u.z.9.` 6 6 6 6 6 6               ",
"          6 6 6 2 d | :.:.&.*.*.*.*.*.*.*.*.*.u.l.9.` 6 6 6 6 6 6               ",
"            , 2 2 0 x N N N ^ o.*.*.*.*.*.6.u.k.h.O.l 6 6 6 6 6 6               ",
"              6 6 6 6 6 6 6 y ` o.*.*.:.4.t.b.h.e.m 6 6 6 6 6 6 6               ",
"              6 6 6 6 6 6 6 7 d ^ *.*.4.u.c.b.6.M y 6 6 6 6 6 6 6               ",
"            * 6 6 6 6 6 6 6 6 6 k ` '  .1.w.q.) 6 6 6 6 , 7 6 1 ,               ",
"      . . . @ 6 6 6 6 6 6 6 6 6 6 6 6 6 6 1 6 6 6 6 6 6 7 , 7 ,                 ",
"      . . . O # # $ > 6 6 6 6 6 6 6 6 6 6 6 6 6 6 6 6 6 , , 6                   ",
"      . . . . . . O ; 6 6 6 6 6 6 6 6 6 6 6 6 6 6 6 6 6 7 ,                     ",
"      . . . . . . O ; 6 6 6 6 6 6 6 6 6 6 6 6 6 6 6 6 6 6 6                     ",
"        . . . . . O - , 6 6 6 6 6 6 6 6 6 6 6 6 6 6 6 6 6 ,                     ",
"                        6 6 6 6 6 6 6 6 6 6 7 , 7 , , 7                         ",
"                        b b b b g , 6 6 6 6 , s v i                             ",
"                        W W W W Z w w w w w w B !                               ",
"                        W W W W I S S S S S S I =.i.b.b.                        ",
"                        W W U U W W W W W W W W ;.d.b.b.                        ",
"                              U W W W W W W W W ;.d.b.b.                        ",
"                                          W W W ;.d.b.b.                        ",
"                                            W W ;.d.b.b.                        "
};
