/* XPM */
static char *result[] = {
/* columns rows colors chars-per-pixel */
"40 40 146 2 ",
"   c black",
".  c #040001",
"X  c #0E0307",
"o  c #0F0307",
"O  c #19060D",
"+  c #1A060D",
"@  c #1C070E",
"#  c #260A13",
"$  c #2B0B16",
"%  c #320D19",
"&  c #390F1C",
"*  c #3B0F1E",
"=  c #401020",
"-  c #461224",
";  c #4A1325",
":  c #53152A",
">  c #56162B",
",  c #58172C",
"<  c #5C182E",
"1  c #661A33",
"2  c #671A33",
"3  c #661B33",
"4  c #661A34",
"5  c #671A34",
"6  c #661B34",
"7  c #671B34",
"8  c #681C35",
"9  c #691D36",
"0  c #6A1E37",
"q  c #6B1F38",
"w  c #6B2039",
"e  c #69233A",
"r  c #6D223B",
"t  c #6E223B",
"y  c #6A243B",
"u  c #6E223C",
"i  c #6A263D",
"p  c #6B273E",
"a  c #6B293F",
"s  c #6B2A3F",
"d  c #6C283E",
"f  c #70243D",
"g  c #71253F",
"h  c #6C2B41",
"j  c #6C2D42",
"k  c #6D2F44",
"l  c #732740",
"z  c #752942",
"x  c #762D45",
"c  c #782C45",
"v  c #7A2E47",
"b  c #6E3246",
"n  c #6F3548",
"m  c #6F3549",
"M  c #793149",
"N  c #7B334B",
"B  c #7D314B",
"V  c #70384B",
"C  c #70394B",
"Z  c #713A4C",
"A  c #713B4D",
"S  c #713C4E",
"D  c #723E4F",
"F  c #7F3850",
"G  c #734151",
"H  c #734152",
"J  c #734253",
"K  c #734353",
"L  c #744454",
"P  c #744555",
"I  c #744655",
"U  c #744656",
"Y  c #754958",
"T  c #764958",
"R  c #764959",
"E  c #754A58",
"W  c #754A59",
"Q  c #764A59",
"!  c #7A4D5C",
"~  c #7A4E5D",
"^  c #80344E",
"/  c #823650",
"(  c #833750",
")  c #843851",
"_  c #823C53",
"`  c #863A54",
"'  c #873B55",
"]  c #873C55",
"[  c #883C56",
"{  c #893F58",
"}  c #8A3E58",
"|  c #8B3F58",
" . c #8E425B",
".. c #8D435C",
"X. c #8E475F",
"o. c #924660",
"O. c #934761",
"+. c #914A62",
"@. c #944862",
"#. c #954963",
"$. c #964963",
"%. c #964A64",
"&. c #934F66",
"*. c #9B4E69",
"=. c #9B4F69",
"-. c #825464",
";. c #835565",
":. c #865767",
">. c #9C516B",
",. c #9D526B",
"<. c #98556B",
"1. c #9E5B72",
"2. c #9D5C72",
"3. c #9F5F74",
"4. c #A15871",
"5. c #A25972",
"6. c #A45B74",
"7. c #A55D76",
"8. c #A65F77",
"9. c #A16076",
"0. c #A76078",
"q. c #A4647A",
"w. c #A6667B",
"e. c #A7687D",
"r. c #A96A7F",
"t. c #A67384",
"y. c #B37087",
"u. c #B57389",
"i. c #B6758B",
"p. c #B17C8F",
"a. c #B8798E",
"s. c #B97A8F",
"d. c #B27E90",
"f. c #B68193",
"g. c #BC8095",
"h. c #BD8195",
"j. c #BD8296",
"k. c #C1879A",
"l. c #C2869B",
"z. c #C2879B",
"x. c #C3889C",
"c. c #C4899D",
"v. c #C68B9F",
"b. c #CB94A6",
"n. c #CC94A7",
"m. c None",
/* pixels */
"7 7 7 7 7 7 7 7 7 7 7 7 7 7 7 7 7 7 7 e D Q Q Q :.f.n.n.&.7 7 7 7 7 e D Q Q t.n.",
"7 7 7 7 7 7 7 7 7 7 7 7 7 7 7 7 7 7 y b J Q Q Q :.f.n.n.&.7 7 7 7 7 e D Q Q t.n.",
"7 7 7 7 7 7 7 7 7 7 7 7 7 7 7 7 7 7 n Q Q Q Q Q :.f.n.n.&.7 7 7 7 7 e D Q Q t.n.",
"m.m.m.m.m.m.m.m.m.m.m.s n n n n n n G Q Q Q Q Q :.f.n.n.e.m.m.m.m.m.m.m.m.m.m.m.",
"m.m.m.m.m.m.m.m.m.m.m.m.Q Q Q Q U H H H H H H I ;.d.b.b.m.m.m.m.m.m.m.m.m.m.m.m.",
"m.m.m.m.m.m.m.m.m.m.R W Q Q Q Q S i i i i i i Z ~ m.m.m.m.m.m.m.m.m.m.m.m.m.m.m.",
"m.m.m.m.m.m.m.m.m.m.Y K V V V V j 7 7 7 7 7 7 h m d m.m.m.m.m.m.m.m.m.m.m.m.m.m.",
"m.m.m.m.m.m.m.m.m.m.Y V 7 7 7 7 7 7 7 7 7 7 7 7 7 7 7 7 m.m.m.m.m.m.m.m.m.m.m.m.",
"m.m.m.m.m.m.m.m.m.m.k p 7 7 7 7 7 7 7 7 7 7 7 7 7 7 7 7 6 m.m.m.m.m.m.m.m.m.m.m.",
"m.m.m.m.m.m.m.m.m.m.5 7 7 7 7 7 7 7 7 7 7 7 7 7 7 7 7 7 7 4 m.m.m.m.m.m.m.m.m.m.",
"m.m.m.m.        & 5 3 7 7 7 7 7 7 7 7 7 7 7 7 7 7 7 7 7 7 4 m.m.m.m.m.m.m.m.m.m.",
"m.m.m.      X # ; 7 7 7 7 7 7 7 7 7 7 7 7 7 7 7 7 7 7 7 7 1 1 m.m.m.m.m.m.m.m.m.",
"m.m.m.      # 7 7 7 7 7 7 7 7 7 7 7 7 7 7 7 7 7 7 7 7 7 7 7 7 2 m.m.m.m.m.m.m.m.",
"m.m.m.      # 7 7 7 7 7 7 7 7 7 g ) ) { <.3.3.F 7 7 7 7 7 7 7 2 6 m.m.m.m.m.m.m.",
"m.m.m.m.. o % 7 7 7 7 7 7 7 8 t ^ =.=.5.a.v.n.2.x w 7 7 7 7 7 7 7 m.m.m.m.m.m.m.",
"m.m.m.m.m.- > 7 7 7 7 7 7 7 t ) o.=.=.,.6.u.n.j.q.M 7 7 7 7 7 7 7 m.m.m.m.m.m.m.",
"m.m.m.m.m.7 7 7 7 0 z v v v ^ o.=.=.=.=.=.8.s.x.g.X.l 7 7 7 7 7 7 m.m.m.m.m.m.m.",
"m.m.m.m.m.7 7 7 7 f  .=.=.=.=.=.=.=.=.=.=.=.=.i.z.0.' 7 7 7 7 7 7 m.m.m.m.m.m.m.",
"m.m.m.m.@.] ) ) ) [ #.=.=.=.=.=.=.=.=.=.=.=.=.i.z.0.' 7 7 7 7 7 7 m.m.m.m.m.m.m.",
"m.m.m.*.=.=.=.=.=.=.=.=.=.=.=.=.=.=.=.=.=.=.=.i.z.0.' 7 7 7 7 7 7 m.m.m.m.m.m.m.",
"m.m.m.*.=.=.=.=.=.=.=.=.=.=.=.=.=.=.=.=.=.=.=.i.z.0.' 7 7 7 7 7 7 m.m.m.m.m.m.m.",
"m.m.m.m.$.} ' ' ' | %.=.=.=.=.=.=.=.=.=.=.=.=.i.z.0.' 7 7 7 7 7 7 m.m.m.m.m.m.m.",
"m.m.m.m.m.7 7 7 7 f  .=.=.=.=.=.=.=.=.=.=.=.=.i.z.0.' 7 7 7 7 7 7 m.m.m.m.m.m.m.",
"m.m.m.m.m.m.1 7 7 q c B B B ( O.=.=.=.=.=.7.i.l.h.+.z 7 7 7 7 7 7 m.m.m.m.m.m.m.",
"m.m.m.m.m.m.m.7 7 7 7 7 7 7 u ` @.=.=.>.4.y.n.k.r.N 7 7 7 7 7 7 7 m.m.m.m.m.m.m.",
"m.m.m.m.m.m.m.7 7 7 7 7 7 7 9 f / =.=.4.i.c.n.9.N r 7 7 7 7 7 7 7 m.m.m.m.m.m.m.",
"m.m.m.m.m.m.m.7 7 7 7 7 7 7 7 7 l ' ' ..1.w.w._ 7 7 7 7 7 7 7 , = $ m.m.m.m.m.m.",
"m.m.m.m.m.m.m.7 7 7 7 7 7 7 7 7 7 7 7 7 7 7 7 7 7 7 7 7 7 7 7 =       m.m.m.m.m.",
"m.m.m.m.m.m.m.m.m.4 3 7 7 7 7 7 7 7 7 7 7 7 7 7 7 7 7 7 7 < * @       m.m.m.m.m.",
"m.m.m.m.m.m.m.m.m.m.7 7 7 7 7 7 7 7 7 7 7 7 7 7 7 7 7 7 7 : O         m.m.m.m.m.",
"m.m.m.m.m.m.m.m.m.m.7 7 7 7 7 7 7 7 7 7 7 7 7 7 7 7 7 7 7 : O         m.m.m.m.m.",
"m.m.m.m.m.m.m.m.m.m.m.1 7 7 7 7 7 7 7 7 7 7 7 7 7 7 7 7 7 : +         m.m.m.m.m.",
"m.m.m.m.m.m.m.m.m.m.m.m.7 7 7 7 7 7 7 7 7 7 7 7 7 7 7 7 m.m.m.m.m.m.m.m.m.m.m.m.",
"m.m.m.m.m.m.m.m.m.m.m.m.n n n n h 7 7 7 7 7 7 a b i m.m.m.m.m.m.m.m.m.m.m.m.m.m.",
"m.m.m.m.m.m.m.m.m.m.m.m.Q Q Q Q A e e e e e e C ! m.m.m.m.m.m.m.m.m.m.m.m.m.m.m.",
"m.m.m.m.m.m.m.m.m.m.m.m.Q Q Q Q P D D D D D D L -.p.n.n.m.m.m.m.m.m.m.m.m.m.m.m.",
"m.m.m.m.m.m.m.m.m.m.m.m.E E T E Q Q Q Q Q Q Q Q :.f.n.n.m.m.m.m.m.m.m.m.m.m.m.m.",
"m.m.m.m.m.m.m.m.m.m.m.m.m.m.m.Y Q Q Q Q Q Q Q Q :.f.n.n.m.m.m.m.m.m.m.m.m.m.m.m.",
"m.m.m.m.m.m.m.m.m.m.m.m.m.m.m.m.m.m.m.m.m.Y Q Q :.f.n.n.m.m.m.m.m.m.m.m.m.m.m.m.",
"m.m.m.m.m.m.m.m.m.m.m.m.m.m.m.m.m.m.m.m.m.m.Q Q :.f.n.n.m.m.m.m.m.m.m.m.m.m.m.m."
};
