/* XPM */
static char *result[] = {
/* columns rows colors chars-per-pixel */
"40 40 139 2 ",
"   c black",
".  c #130509",
"X  c #13050A",
"o  c #2D0B16",
"O  c #370E1C",
"+  c #390F1D",
"@  c #401020",
"#  c #4D1326",
"$  c #4D1427",
"%  c #56162B",
"&  c #58172C",
"*  c #661A33",
"=  c #671A33",
"-  c #661B33",
";  c #671B33",
":  c #661A34",
">  c #671A34",
",  c #661B34",
"<  c #671B34",
"1  c #681C35",
"2  c #691D36",
"3  c #6A1E37",
"4  c #6B1F38",
"5  c #6B2039",
"6  c #69233A",
"7  c #6D223B",
"8  c #6E223B",
"9  c #6A243B",
"0  c #6E223C",
"q  c #6A263D",
"w  c #6B273E",
"e  c #6B293F",
"r  c #6B2A3F",
"t  c #6C283E",
"y  c #70243D",
"u  c #71253F",
"i  c #6C2B41",
"p  c #6C2D42",
"a  c #6D2F44",
"s  c #732740",
"d  c #752942",
"f  c #762D45",
"g  c #782C45",
"h  c #7A2E47",
"j  c #6E3246",
"k  c #6F3548",
"l  c #6F3549",
"z  c #793149",
"x  c #7B334B",
"c  c #7D314B",
"v  c #70384B",
"b  c #70394B",
"n  c #713A4C",
"m  c #713B4D",
"M  c #713C4E",
"N  c #723E4F",
"B  c #7F3850",
"V  c #734151",
"C  c #734152",
"Z  c #734253",
"A  c #734353",
"S  c #744454",
"D  c #744555",
"F  c #744655",
"G  c #744656",
"H  c #754958",
"J  c #764958",
"K  c #764959",
"L  c #754A58",
"P  c #754A59",
"I  c #764A59",
"U  c #7A4D5C",
"Y  c #7A4E5D",
"T  c #80344E",
"R  c #823650",
"E  c #833750",
"W  c #843851",
"Q  c #823C53",
"!  c #863A54",
"~  c #873B55",
"^  c #873C55",
"/  c #883C56",
"(  c #893F58",
")  c #8A3E58",
"_  c #8B3F58",
"`  c #8E425B",
"'  c #8D435C",
"]  c #8E475F",
"[  c #924660",
"{  c #934761",
"}  c #914A62",
"|  c #944862",
" . c #954963",
".. c #964963",
"X. c #964A64",
"o. c #934F66",
"O. c #9B4E69",
"+. c #9B4F69",
"@. c #825464",
"#. c #835565",
"$. c #865767",
"%. c #9C516B",
"&. c #9D526B",
"*. c #98556B",
"=. c #9E5B72",
"-. c #9D5C72",
";. c #9F5F74",
":. c #A15871",
">. c #A25972",
",. c #A45B74",
"<. c #A55D76",
"1. c #A65F77",
"2. c #A16076",
"3. c #A76078",
"4. c #A4647A",
"5. c #A6667B",
"6. c #A7687D",
"7. c #A96A7F",
"8. c #A67384",
"9. c #B37087",
"0. c #B57389",
"q. c #B6758B",
"w. c #B17C8F",
"e. c #B8798E",
"r. c #B97A8F",
"t. c #B27E90",
"y. c #B68193",
"u. c #BC8095",
"i. c #BD8195",
"p. c #BD8296",
"a. c #C1879A",
"s. c #C2869B",
"d. c #C2879B",
"f. c #C3889C",
"g. c #C4899D",
"h. c #C68B9F",
"j. c #CB94A6",
"k. c #CC94A7",
"l. c None",
/* pixels */
"< < < < < < < < < < < < < < < < < < < 6 N I I I $.y.k.k.o.< < < < < 6 N I I 8.k.",
"< < < < < < < < < < < < < < < < < < 9 j Z I I I $.y.k.k.o.< < < < < 6 N I I 8.k.",
"< < < < < < < < < < < < < < < < < < k I I I I I $.y.k.k.o.< < < < < 6 N I I 8.k.",
"l.l.l.l.l.l.l.l.l.l.l.r k k k k k k V I I I I I $.y.k.k.6.l.l.l.l.l.l.l.l.l.l.l.",
"l.l.l.l.l.l.l.l.l.l.l.l.I I I I G C C C C C C F #.t.j.j.l.l.l.l.l.l.l.l.l.l.l.l.",
"l.l.l.l.l.l.l.l.l.l.K P I I I I M q q q q q q n Y l.l.l.l.l.l.l.l.l.l.l.l.l.l.l.",
"l.l.l.l.l.l.l.l.l.l.H A v v v v p < < < < < < i l t l.l.l.l.l.l.l.l.l.l.l.l.l.l.",
"l.l.l.l.l.l.l.l.l.l.H v < < < < < < < < < < < < < < < < l.l.l.l.l.l.l.l.l.l.l.l.",
"l.l.l.l.l.l.l.l.l.l.a w < < < < < < < < < < < < < < < < , l.l.l.l.l.l.l.l.l.l.l.",
"l.l.l.l.l.l.l.l.l.l.> < < < < < < < < < < < < < < < < < < : l.l.l.l.l.l.l.l.l.l.",
"l.l.l.l.l.l.l.l.l.> - < < < < < < < < < < < < < < < < < < : l.l.l.l.l.l.l.l.l.l.",
"l.l.l.l.l.l.l.l.* < < < < < < < < < < < < < < < < < < < < * * l.l.l.l.l.l.l.l.l.",
"l.l.l.l.l.l.l.< < < < < < < < < < < < < < < < < < < < < < < < @   l.l.l.l.l.l.l.",
"l.l.l.l.l.l.l.< < < < < < < < < u W W ( *.;.;.B < < < < < < < % + l.l.l.l.l.l.l.",
"l.l.l.l.l.l.l.< < < < < < < 1 8 T +.+.>.e.h.k.-.f 5 < < < < < < < l.l.l.l.l.l.l.",
"l.l.l.l.l., * < < < < < < < 8 W [ +.+.&.,.0.k.p.4.z < < < < < < < l.l.l.l.l.l.l.",
"l.l.l.l.l.< < < < 3 d h h h T [ +.+.+.+.+.1.r.f.u.] s < < < < < < l.l.l.l.l.l.l.",
"l.l.l.l.l.< < < < y ` +.+.+.+.+.+.+.+.+.+.+.+.q.d.3.~ < < < < < < l.l.l.l.l.l.l.",
"l.l.l.l.| ^ W W W /  .+.+.+.+.+.+.+.+.+.+.+.+.q.d.3.~ < < < < < < l.l.l.l.l.l.l.",
"l.l.l.O.+.+.+.+.+.+.+.+.+.+.+.+.+.+.+.+.+.+.+.q.d.3.~ < < < < < < l.l.l.l.l.l.l.",
"l.l.l.O.+.+.+.+.+.+.+.+.+.+.+.+.+.+.+.+.+.+.+.q.d.3.~ < < < < < < l.l.l.l.l.l.l.",
"l.l.l.l...) ~ ~ ~ _ X.+.+.+.+.+.+.+.+.+.+.+.+.q.d.3.~ < < < < < < l.l.l.l.l.l.l.",
"l.l.l.l.l.< < < < y ` +.+.+.+.+.+.+.+.+.+.+.+.q.d.3.~ < < < < < < l.l.l.l.l.l.l.",
"l.l.l.l.l.l.* < < 4 g c c c E { +.+.+.+.+.<.q.s.i.} d < < < < < < l.l.l.l.l.l.l.",
"l.l.l.l.l.l.l.< < < < < < < 0 ! | +.+.%.:.9.k.a.7.x < < < < < < < l.l.l.l.l.l.l.",
"l.l.l.l.l.l.l.< < < < < < < 2 y R +.+.:.q.g.k.2.x 7 < < < < < < < l.l.l.l.l.l.l.",
"l.l.l.l.l.l.l.< < < < < < < < < s ~ ~ ' =.5.5.Q < < < < < < < - = l.l.l.l.l.l.l.",
"l.l.l.l.l.l.l.< < < < < < < < < < < < < < < < < < < < < < < < = l.l.l.l.l.l.l.l.",
"l.l.l.l.l.l.l.o o O & < < < < < < < < < < < < < < < < < < ; : l.l.l.l.l.l.l.l.l.",
"l.l.l.l.l.l.l.    . $ < < < < < < < < < < < < < < < < < < : l.l.l.l.l.l.l.l.l.l.",
"l.l.l.l.l.l.l.    . $ < < < < < < < < < < < < < < < < < < : l.l.l.l.l.l.l.l.l.l.",
"l.l.l.l.l.l.l.    X # * < < < < < < < < < < < < < < < < < = l.l.l.l.l.l.l.l.l.l.",
"l.l.l.l.l.l.l.l.l.l.l.l.< < < < < < < < < < < < < < < < l.l.l.l.l.l.l.l.l.l.l.l.",
"l.l.l.l.l.l.l.l.l.l.l.l.k k k k i < < < < < < e j q l.l.l.l.l.l.l.l.l.l.l.l.l.l.",
"l.l.l.l.l.l.l.l.l.l.l.l.I I I I m 6 6 6 6 6 6 b U l.l.l.l.l.l.l.l.l.l.l.l.l.l.l.",
"l.l.l.l.l.l.l.l.l.l.l.l.I I I I D N N N N N N S @.w.k.k.l.l.l.l.l.l.l.l.l.l.l.l.",
"l.l.l.l.l.l.l.l.l.l.l.l.L L J L I I I I I I I I $.y.k.k.l.l.l.l.l.l.l.l.l.l.l.l.",
"l.l.l.l.l.l.l.l.l.l.l.l.l.l.l.H I I I I I I I I $.y.k.k.l.l.l.l.l.l.l.l.l.l.l.l.",
"l.l.l.l.l.l.l.l.l.l.l.l.l.l.l.l.l.l.l.l.l.H I I $.y.k.k.l.l.l.l.l.l.l.l.l.l.l.l.",
"l.l.l.l.l.l.l.l.l.l.l.l.l.l.l.l.l.l.l.l.l.l.I I $.y.k.k.l.l.l.l.l.l.l.l.l.l.l.l."
};
