/* XPM */
static char *result[] = {
/* columns rows colors chars-per-pixel */
"40 40 144 2 ",
"   c black",
".  c #0E0307",
"X  c #130409",
"o  c #19060D",
"O  c #1A060D",
"+  c #1C070E",
"@  c #260A13",
"#  c #320D19",
"$  c #390F1C",
"%  c #3B0F1E",
"&  c #401020",
"*  c #4A1325",
"=  c #4C1427",
"-  c #53152A",
";  c #56162B",
":  c #58172C",
">  c #5C182E",
",  c #661A33",
"<  c #671A33",
"1  c #661B33",
"2  c #661A34",
"3  c #671A34",
"4  c #661B34",
"5  c #671B34",
"6  c #681C35",
"7  c #691D36",
"8  c #6A1E37",
"9  c #6B1F38",
"0  c #6B2039",
"q  c #69233A",
"w  c #6D223B",
"e  c #6E223B",
"r  c #6A243B",
"t  c #6E223C",
"y  c #6A263D",
"u  c #6B273E",
"i  c #6B293F",
"p  c #6B2A3F",
"a  c #6C283E",
"s  c #70243D",
"d  c #71253F",
"f  c #6C2B41",
"g  c #6C2D42",
"h  c #6D2F44",
"j  c #732740",
"k  c #752942",
"l  c #762D45",
"z  c #782C45",
"x  c #7A2E47",
"c  c #6E3246",
"v  c #6F3548",
"b  c #6F3549",
"n  c #793149",
"m  c #7B334B",
"M  c #7D314B",
"N  c #70384B",
"B  c #70394B",
"V  c #713A4C",
"C  c #713B4D",
"Z  c #713C4E",
"A  c #723E4F",
"S  c #7F3850",
"D  c #734151",
"F  c #734152",
"G  c #734253",
"H  c #734353",
"J  c #744454",
"K  c #744555",
"L  c #744655",
"P  c #744656",
"I  c #754958",
"U  c #764958",
"Y  c #764959",
"T  c #754A58",
"R  c #754A59",
"E  c #764A59",
"W  c #7A4D5C",
"Q  c #7A4E5D",
"!  c #80344E",
"~  c #823650",
"^  c #833750",
"/  c #843851",
"(  c #823C53",
")  c #863A54",
"_  c #873B55",
"`  c #873C55",
"'  c #883C56",
"]  c #893F58",
"[  c #8A3E58",
"{  c #8B3F58",
"}  c #8E425B",
"|  c #8D435C",
" . c #8E475F",
".. c #924660",
"X. c #934761",
"o. c #914A62",
"O. c #944862",
"+. c #954963",
"@. c #964963",
"#. c #964A64",
"$. c #934F66",
"%. c #9B4E69",
"&. c #9B4F69",
"*. c #825464",
"=. c #835565",
"-. c #865767",
";. c #9C516B",
":. c #9D526B",
">. c #98556B",
",. c #9E5B72",
"<. c #9D5C72",
"1. c #9F5F74",
"2. c #A15871",
"3. c #A25972",
"4. c #A45B74",
"5. c #A55D76",
"6. c #A65F77",
"7. c #A16076",
"8. c #A76078",
"9. c #A4647A",
"0. c #A6667B",
"q. c #A7687D",
"w. c #A96A7F",
"e. c #A67384",
"r. c #B37087",
"t. c #B57389",
"y. c #B6758B",
"u. c #B17C8F",
"i. c #B8798E",
"p. c #B97A8F",
"a. c #B27E90",
"s. c #B68193",
"d. c #BC8095",
"f. c #BD8195",
"g. c #BD8296",
"h. c #C1879A",
"j. c #C2869B",
"k. c #C2879B",
"l. c #C3889C",
"z. c #C4899D",
"x. c #C68B9F",
"c. c #CB94A6",
"v. c #CC94A7",
"b. c None",
/* pixels */
"5 5 5 5 5 5 5 5 5 5 5 5 5 5 5 5 5 5 5 q A E E E -.s.v.v.$.5 5 5 5 5 q A E E e.v.",
"5 5 5 5 5 5 5 5 5 5 5 5 5 5 5 5 5 5 r c G E E E -.s.v.v.$.5 5 5 5 5 q A E E e.v.",
"5 5 5 5 5 5 5 5 5 5 5 5 5 5 5 5 5 5 v E E E E E -.s.v.v.$.5 5 5 5 5 q A E E e.v.",
"b.b.b.b.b.b.b.b.b.b.b.p v v v v v v D E E E E E -.s.v.v.q.b.b.b.b.b.b.b.b.b.b.b.",
"b.b.b.b.b.b.b.b.b.b.b.b.E E E E P F F F F F F L =.a.c.c.b.b.b.b.b.b.b.b.b.b.b.b.",
"b.b.b.b.b.b.b.b.b.b.Y R E E E E Z y y y y y y V Q b.b.b.b.b.b.b.b.b.b.b.b.b.b.b.",
"b.b.b.b.b.b.b.b.b.b.I H N N N N g 5 5 5 5 5 5 f b a b.b.b.b.b.b.b.b.b.b.b.b.b.b.",
"b.b.b.b.b.b.b.b.b.b.I N 5 5 5 5 5 5 5 5 5 5 5 5 5 5 5 5 b.b.b.b.b.b.b.b.b.b.b.b.",
"b.b.b.b.b.b.b.b.b.b.h u 5 5 5 5 5 5 5 5 5 5 5 5 5 5 5 5 4 b.b.b.b.b.b.b.b.b.b.b.",
"b.b.b.b.b.b.b.b.b.b.3 5 5 5 5 5 5 5 5 5 5 5 5 5 5 5 5 5 5 2 b.b.b.b.b.b.b.b.b.b.",
"b.b.b.b.b.      $ 3 1 5 5 5 5 5 5 5 5 5 5 5 5 5 5 5 5 5 5 2 b.b.b.b.b.b.b.b.b.b.",
"b.b.b.b.b.  . @ * 5 5 5 5 5 5 5 5 5 5 5 5 5 5 5 5 5 5 5 5 , , b.b.b.b.b.b.b.b.b.",
"b.b.b.b.b.  @ 5 5 5 5 5 5 5 5 5 5 5 5 5 5 5 5 5 5 5 5 5 5 5 5 < b.b.b.b.b.b.b.b.",
"b.b.b.b.b.  @ 5 5 5 5 5 5 5 5 5 d / / ] >.1.1.S 5 5 5 5 5 5 5 < 4 b.b.b.b.b.b.b.",
"b.b.b.b.b.X # 5 5 5 5 5 5 5 6 e ! &.&.3.i.x.v.<.l 0 5 5 5 5 5 5 5 b.b.b.b.b.b.b.",
"b.b.b.b.b.= ; 5 5 5 5 5 5 5 e / ..&.&.:.4.t.v.g.9.n 5 5 5 5 5 5 5 b.b.b.b.b.b.b.",
"b.b.b.b.b.5 5 5 5 8 k x x x ! ..&.&.&.&.&.6.p.l.d. .j 5 5 5 5 5 5 b.b.b.b.b.b.b.",
"b.b.b.b.b.5 5 5 5 s } &.&.&.&.&.&.&.&.&.&.&.&.y.k.8._ 5 5 5 5 5 5 b.b.b.b.b.b.b.",
"b.b.b.b.O.` / / / ' +.&.&.&.&.&.&.&.&.&.&.&.&.y.k.8._ 5 5 5 5 5 5 b.b.b.b.b.b.b.",
"b.b.b.%.&.&.&.&.&.&.&.&.&.&.&.&.&.&.&.&.&.&.&.y.k.8._ 5 5 5 5 5 5 b.b.b.b.b.b.b.",
"b.b.b.%.&.&.&.&.&.&.&.&.&.&.&.&.&.&.&.&.&.&.&.y.k.8._ 5 5 5 5 5 5 b.b.b.b.b.b.b.",
"b.b.b.b.@.[ _ _ _ { #.&.&.&.&.&.&.&.&.&.&.&.&.y.k.8._ 5 5 5 5 5 5 b.b.b.b.b.b.b.",
"b.b.b.b.b.5 5 5 5 s } &.&.&.&.&.&.&.&.&.&.&.&.y.k.8._ 5 5 5 5 5 5 b.b.b.b.b.b.b.",
"b.b.b.b.b.b., 5 5 9 z M M M ^ X.&.&.&.&.&.5.y.j.f.o.k 5 5 5 5 5 5 b.b.b.b.b.b.b.",
"b.b.b.b.b.b.b.5 5 5 5 5 5 5 t ) O.&.&.;.2.r.v.h.w.m 5 5 5 5 5 5 5 b.b.b.b.b.b.b.",
"b.b.b.b.b.b.b.5 5 5 5 5 5 5 7 s ~ &.&.2.y.z.v.7.m w 5 5 5 5 5 5 5 b.b.b.b.b.b.b.",
"b.b.b.b.b.b.b.5 5 5 5 5 5 5 5 5 j _ _ | ,.0.0.( 5 5 5 5 5 5 5 : & b.b.b.b.b.b.b.",
"b.b.b.b.b.b.b.5 5 5 5 5 5 5 5 5 5 5 5 5 5 5 5 5 5 5 5 5 5 5 5 &   b.b.b.b.b.b.b.",
"b.b.b.b.b.b.b.b.b.2 1 5 5 5 5 5 5 5 5 5 5 5 5 5 5 5 5 5 5 > % +   b.b.b.b.b.b.b.",
"b.b.b.b.b.b.b.b.b.b.5 5 5 5 5 5 5 5 5 5 5 5 5 5 5 5 5 5 5 - o     b.b.b.b.b.b.b.",
"b.b.b.b.b.b.b.b.b.b.5 5 5 5 5 5 5 5 5 5 5 5 5 5 5 5 5 5 5 - o     b.b.b.b.b.b.b.",
"b.b.b.b.b.b.b.b.b.b.b., 5 5 5 5 5 5 5 5 5 5 5 5 5 5 5 5 5 - O     b.b.b.b.b.b.b.",
"b.b.b.b.b.b.b.b.b.b.b.b.5 5 5 5 5 5 5 5 5 5 5 5 5 5 5 5 b.b.b.b.b.b.b.b.b.b.b.b.",
"b.b.b.b.b.b.b.b.b.b.b.b.v v v v f 5 5 5 5 5 5 i c y b.b.b.b.b.b.b.b.b.b.b.b.b.b.",
"b.b.b.b.b.b.b.b.b.b.b.b.E E E E C q q q q q q B W b.b.b.b.b.b.b.b.b.b.b.b.b.b.b.",
"b.b.b.b.b.b.b.b.b.b.b.b.E E E E K A A A A A A J *.u.v.v.b.b.b.b.b.b.b.b.b.b.b.b.",
"b.b.b.b.b.b.b.b.b.b.b.b.T T U T E E E E E E E E -.s.v.v.b.b.b.b.b.b.b.b.b.b.b.b.",
"b.b.b.b.b.b.b.b.b.b.b.b.b.b.b.I E E E E E E E E -.s.v.v.b.b.b.b.b.b.b.b.b.b.b.b.",
"b.b.b.b.b.b.b.b.b.b.b.b.b.b.b.b.b.b.b.b.b.I E E -.s.v.v.b.b.b.b.b.b.b.b.b.b.b.b.",
"b.b.b.b.b.b.b.b.b.b.b.b.b.b.b.b.b.b.b.b.b.b.E E -.s.v.v.b.b.b.b.b.b.b.b.b.b.b.b."
};
